<svg width="55" height="55" viewBox="0 0 55 55" fill="none" xmlns="http://www.w3.org/2000/svg">
<g clip-path="url(#clip0_32_618)">
<path fill-rule="evenodd" clip-rule="evenodd" d="M29.5 44.25C37.6462 44.25 44.25 37.6462 44.25 29.5C44.25 21.3538 37.6462 14.75 29.5 14.75C21.3538 14.75 14.75 21.3538 14.75 29.5C14.75 37.6462 21.3538 44.25 29.5 44.25ZM29.5 39.3333C34.9307 39.3333 39.3333 34.9307 39.3333 29.5C39.3333 24.0692 34.9307 19.6667 29.5 19.6667C24.0692 19.6667 19.6667 24.0692 19.6667 29.5C19.6667 34.9307 24.0692 39.3333 29.5 39.3333Z" fill="white"/>
<path d="M44.25 12.2915C42.8923 12.2915 41.7917 13.3921 41.7917 14.7498C41.7917 16.1075 42.8923 17.2082 44.25 17.2082C45.6078 17.2082 46.7084 16.1075 46.7084 14.7498C46.7084 13.3921 45.6078 12.2915 44.25 12.2915Z" fill="white"/>
<path fill-rule="evenodd" clip-rule="evenodd" d="M4.06596 10.5121C2.45831 13.6673 2.45831 17.7977 2.45831 26.0585V32.9418C2.45831 41.2026 2.45831 45.3331 4.06596 48.4881C5.4801 51.2635 7.73655 53.52 10.512 54.9341C13.6672 56.5418 17.7976 56.5418 26.0583 56.5418H32.9416C41.2024 56.5418 45.3329 56.5418 48.4879 54.9341C51.2634 53.52 53.5199 51.2635 54.9339 48.4881C56.5416 45.3331 56.5416 41.2026 56.5416 32.9418V26.0585C56.5416 17.7977 56.5416 13.6673 54.9339 10.5121C53.5199 7.73673 51.2634 5.48028 48.4879 4.06615C45.3329 2.4585 41.2024 2.4585 32.9416 2.4585H26.0583C17.7976 2.4585 13.6672 2.4585 10.512 4.06615C7.73655 5.48028 5.4801 7.73673 4.06596 10.5121ZM32.9416 7.37516H26.0583C21.8468 7.37516 18.9838 7.379 16.7709 7.55978C14.6154 7.7359 13.513 8.05511 12.7441 8.44692C10.8938 9.38969 9.38951 10.894 8.44674 12.7443C8.05493 13.5132 7.73572 14.6155 7.5596 16.7711C7.37881 18.984 7.37498 21.847 7.37498 26.0585V32.9418C7.37498 37.1534 7.37881 40.0162 7.5596 42.2292C7.73572 44.3849 8.05493 45.4872 8.44674 46.2562C9.38951 48.1063 10.8938 49.6106 12.7441 50.5533C13.513 50.9452 14.6154 51.2645 16.7709 51.4405C18.9838 51.6212 21.8468 51.6252 26.0583 51.6252H32.9416C37.1533 51.6252 40.016 51.6212 42.229 51.4405C44.3847 51.2645 45.487 50.9452 46.256 50.5533C48.1061 49.6106 49.6104 48.1063 50.5531 46.2562C50.945 45.4872 51.2643 44.3849 51.4404 42.2292C51.621 40.0162 51.625 37.1534 51.625 32.9418V26.0585C51.625 21.847 51.621 18.984 51.4404 16.7711C51.2643 14.6155 50.945 13.5132 50.5531 12.7443C49.6104 10.894 48.1061 9.38969 46.256 8.44692C45.487 8.05511 44.3847 7.7359 42.229 7.55978C40.016 7.379 37.1533 7.37516 32.9416 7.37516Z" fill="white"/>
</g>
<defs>
<clipPath id="clip0_32_618">
<rect width="55" height="55" fill="white"/>
</clipPath>
</defs>
</svg>
