<svg width="211" height="181" viewBox="0 0 211 181" fill="none" xmlns="http://www.w3.org/2000/svg">
<path d="M12 5.625C11.1842 5.625 10.3866 5.86693 9.70827 6.32019C9.02992 6.77345 8.50121 7.41769 8.189 8.17143C7.87679 8.92518 7.7951 9.75458 7.95426 10.5547C8.11343 11.3549 8.50629 12.0899 9.08318 12.6668C9.66008 13.2437 10.3951 13.6366 11.1953 13.7957C11.9954 13.9549 12.8248 13.8732 13.5786 13.561C14.3323 13.2488 14.9766 12.7201 15.4298 12.0417C15.8831 11.3634 16.125 10.5658 16.125 9.75C16.1238 8.65636 15.6888 7.60787 14.9154 6.83455C14.1421 6.06124 13.0936 5.62624 12 5.625ZM12 11.625C11.6292 11.625 11.2666 11.515 10.9583 11.309C10.65 11.103 10.4096 10.8101 10.2677 10.4675C10.1258 10.1249 10.0887 9.74792 10.161 9.3842C10.2334 9.02049 10.412 8.6864 10.6742 8.42417C10.9364 8.16195 11.2705 7.98337 11.6342 7.91103C11.9979 7.83868 12.3749 7.87581 12.7175 8.01772C13.0601 8.15964 13.353 8.39996 13.559 8.70831C13.765 9.01665 13.875 9.37916 13.875 9.75C13.8745 10.2471 13.6767 10.7237 13.3252 11.0752C12.9737 11.4267 12.4971 11.6245 12 11.625ZM12 1.125C9.7133 1.12758 7.521 2.03711 5.90405 3.65405C4.28711 5.271 3.37758 7.4633 3.375 9.75C3.375 17.0023 11.0289 22.4436 11.3548 22.6717C11.5439 22.804 11.7692 22.875 12 22.875C12.2308 22.875 12.4561 22.804 12.6452 22.6717C14.0943 21.6045 15.4204 20.3796 16.5989 19.0194C19.2328 15.9905 20.625 12.7852 20.625 9.75C20.6224 7.4633 19.7129 5.271 18.0959 3.65405C16.479 2.03711 14.2867 1.12758 12 1.125ZM14.9346 17.5044C14.0407 18.531 13.0588 19.4775 12 20.3331C10.9412 19.4775 9.9593 18.5311 9.06544 17.5044C7.49587 15.6906 5.625 12.8728 5.625 9.75C5.625 8.05924 6.29665 6.43774 7.49219 5.24219C8.68774 4.04665 10.3092 3.375 12 3.375C13.6908 3.375 15.3123 4.04665 16.5078 5.24219C17.7034 6.43774 18.375 8.05924 18.375 9.75C18.375 12.8728 16.5041 15.6906 14.9346 17.5044Z" fill="white"/>
<path d="M37.088 6.576C38.56 6.576 39.632 6.896 40.304 7.536C40.9867 8.16533 41.328 9.03467 41.328 10.144C41.328 10.6453 41.2533 11.1253 41.104 11.584C40.9547 12.032 40.704 12.4373 40.352 12.8C40.0107 13.152 39.5573 13.4293 38.992 13.632C38.4267 13.8347 37.728 13.936 36.896 13.936H35.856V18H33.44V6.576H37.088ZM36.96 8.56H35.856V11.952H36.656C37.1147 11.952 37.5093 11.8933 37.84 11.776C38.1707 11.6587 38.4267 11.472 38.608 11.216C38.7893 10.96 38.88 10.6293 38.88 10.224C38.88 9.65867 38.7253 9.24267 38.416 8.976C38.1067 8.69867 37.6213 8.56 36.96 8.56ZM51.2309 13.616C51.2309 14.3413 51.1295 14.9867 50.9269 15.552C50.7349 16.1173 50.4522 16.5973 50.0789 16.992C49.7162 17.376 49.2735 17.6693 48.7509 17.872C48.2282 18.064 47.6362 18.16 46.9749 18.16C46.3669 18.16 45.8015 18.064 45.2789 17.872C44.7669 17.6693 44.3242 17.376 43.9509 16.992C43.5775 16.5973 43.2842 16.1173 43.0709 15.552C42.8682 14.9867 42.7669 14.3413 42.7669 13.616C42.7669 12.6453 42.9375 11.8293 43.2789 11.168C43.6202 10.496 44.1109 9.984 44.7509 9.632C45.3909 9.28 46.1482 9.104 47.0229 9.104C47.8442 9.104 48.5695 9.28 49.1989 9.632C49.8282 9.984 50.3242 10.496 50.6869 11.168C51.0495 11.8293 51.2309 12.6453 51.2309 13.616ZM45.1989 13.616C45.1989 14.192 45.2575 14.6773 45.3749 15.072C45.5029 15.456 45.7002 15.7493 45.9669 15.952C46.2335 16.144 46.5802 16.24 47.0069 16.24C47.4335 16.24 47.7749 16.144 48.0309 15.952C48.2975 15.7493 48.4895 15.456 48.6069 15.072C48.7349 14.6773 48.7989 14.192 48.7989 13.616C48.7989 13.04 48.7349 12.56 48.6069 12.176C48.4895 11.792 48.2975 11.504 48.0309 11.312C47.7642 11.12 47.4175 11.024 46.9909 11.024C46.3615 11.024 45.9029 11.2427 45.6149 11.68C45.3375 12.1067 45.1989 12.752 45.1989 13.616ZM56.7531 18.16C55.8891 18.16 55.1531 18.0053 54.5451 17.696C53.9371 17.376 53.4731 16.8853 53.1531 16.224C52.8331 15.5627 52.6731 14.7147 52.6731 13.68C52.6731 12.6133 52.8545 11.744 53.2171 11.072C53.5798 10.4 54.0811 9.904 54.7211 9.584C55.3718 9.264 56.1185 9.104 56.9611 9.104C57.5585 9.104 58.0758 9.16267 58.5131 9.28C58.9611 9.39733 59.3505 9.536 59.6811 9.696L58.9771 11.536C58.6038 11.3867 58.2518 11.264 57.9211 11.168C57.6011 11.072 57.2811 11.024 56.9611 11.024C56.5451 11.024 56.1985 11.1253 55.9211 11.328C55.6438 11.52 55.4358 11.8133 55.2971 12.208C55.1691 12.592 55.1051 13.0773 55.1051 13.664C55.1051 14.24 55.1745 14.72 55.3131 15.104C55.4625 15.4773 55.6758 15.76 55.9531 15.952C56.2305 16.1333 56.5665 16.224 56.9611 16.224C57.4625 16.224 57.9051 16.16 58.2891 16.032C58.6731 15.8933 59.0465 15.7067 59.4091 15.472V17.504C59.0465 17.7387 58.6625 17.904 58.2571 18C57.8625 18.1067 57.3611 18.16 56.7531 18.16ZM64.9719 18.16C64.1079 18.16 63.3719 18.0053 62.7639 17.696C62.1559 17.376 61.6919 16.8853 61.3719 16.224C61.0519 15.5627 60.8919 14.7147 60.8919 13.68C60.8919 12.6133 61.0732 11.744 61.4359 11.072C61.7985 10.4 62.2999 9.904 62.9399 9.584C63.5905 9.264 64.3372 9.104 65.1799 9.104C65.7772 9.104 66.2945 9.16267 66.7319 9.28C67.1799 9.39733 67.5692 9.536 67.8999 9.696L67.1959 11.536C66.8225 11.3867 66.4705 11.264 66.1399 11.168C65.8199 11.072 65.4999 11.024 65.1799 11.024C64.7639 11.024 64.4172 11.1253 64.1399 11.328C63.8625 11.52 63.6545 11.8133 63.5159 12.208C63.3879 12.592 63.3239 13.0773 63.3239 13.664C63.3239 14.24 63.3932 14.72 63.5319 15.104C63.6812 15.4773 63.8945 15.76 64.1719 15.952C64.4492 16.1333 64.7852 16.224 65.1799 16.224C65.6812 16.224 66.1239 16.16 66.5079 16.032C66.8919 15.8933 67.2652 15.7067 67.6279 15.472V17.504C67.2652 17.7387 66.8812 17.904 66.4759 18C66.0812 18.1067 65.5799 18.16 64.9719 18.16ZM71.9426 12.72C71.9426 12.9013 71.932 13.1253 71.9106 13.392C71.9 13.6587 71.884 13.9307 71.8626 14.208C71.852 14.4853 71.836 14.7307 71.8146 14.944C71.7933 15.1573 71.7773 15.3067 71.7666 15.392L75.7986 9.264H78.6626V18H76.3586V14.512C76.3586 14.224 76.3693 13.9093 76.3906 13.568C76.412 13.216 76.4333 12.8907 76.4546 12.592C76.4866 12.2827 76.508 12.048 76.5186 11.888L72.5026 18H69.6386V9.264H71.9426V12.72ZM82.4823 18H79.9062L82.2582 14.544C81.9596 14.416 81.6769 14.2453 81.4103 14.032C81.1543 13.808 80.9463 13.5253 80.7863 13.184C80.6263 12.8427 80.5463 12.4373 80.5463 11.968C80.5463 11.0933 80.8769 10.4267 81.5383 9.968C82.1996 9.49867 83.0476 9.264 84.0823 9.264H88.1463V18H85.7623V14.752H84.4503L82.4823 18ZM82.8823 11.984C82.8823 12.3467 83.0263 12.6347 83.3143 12.848C83.6023 13.0507 83.9756 13.152 84.4343 13.152H85.7623V10.944H84.1302C83.7036 10.944 83.3889 11.0507 83.1863 11.264C82.9836 11.4667 82.8823 11.7067 82.8823 11.984Z" fill="white"/>
<path d="M16.5 61.3752C8.84934 61.3752 2.625 55.1509 2.625 47.5002C2.62647 46.1318 3.12605 44.8108 4.03041 43.7838C4.93478 42.7569 6.18206 42.0943 7.53928 41.9198C7.94235 41.8711 8.35035 41.9542 8.70232 42.1565C9.0543 42.3589 9.33136 42.6697 9.49209 43.0425L11.3755 47.4373C11.4977 47.7214 11.5475 48.0314 11.5205 48.3396C11.4936 48.6477 11.3906 48.9443 11.2209 49.2029L9.78037 51.4041C10.4219 52.6114 11.4123 53.5974 12.6223 54.2336L14.7877 52.7897C15.047 52.6161 15.3456 52.5102 15.6563 52.4817C15.967 52.4531 16.2799 52.5028 16.5665 52.6262L20.9576 54.5081C21.3306 54.6687 21.6415 54.9457 21.8439 55.2977C22.0463 55.6497 22.1292 56.0578 22.0804 56.4609C21.9059 57.8181 21.2433 59.0654 20.2164 59.9698C19.1894 60.8742 17.8684 61.3737 16.5 61.3752ZM7.54012 44.1997C6.78584 44.3629 6.11012 44.7794 5.62528 45.3798C5.14044 45.9802 4.87568 46.7285 4.875 47.5002C4.87847 50.5823 6.10436 53.5371 8.28372 55.7165C10.4631 57.8958 13.4179 59.1217 16.5 59.1252C17.2717 59.1245 18.02 58.8597 18.6204 58.3749C19.2208 57.89 19.6372 57.2143 19.8005 56.4601L15.867 54.7744L13.689 56.2266C13.419 56.4069 13.1068 56.5139 12.783 56.5372C12.4592 56.5604 12.1349 56.4992 11.8418 56.3594C10.0217 55.4773 8.54906 54.0115 7.65872 52.1953C7.5183 51.904 7.45556 51.5814 7.47659 51.2588C7.49761 50.9361 7.60169 50.6243 7.77872 50.3538L9.22837 48.1388L7.54012 44.1997Z" fill="white"/>
<path d="M36.5625 56.0455V48.3636H38.0909V56.0455H36.5625ZM33.4886 52.9659V51.4432H41.1705V52.9659H33.4886ZM43.777 58L48.8565 47.9545V47.8693H42.9815V46.3636H50.6747V47.9205L45.6122 58H43.777ZM57.402 52.1818C57.402 50.7576 57.5895 49.447 57.9645 48.25C58.3395 47.053 58.8868 45.9489 59.6065 44.9375H61.1634C60.883 45.3125 60.6217 45.7727 60.3793 46.3182C60.1368 46.8636 59.9247 47.4621 59.7429 48.1136C59.5611 48.7614 59.419 49.4337 59.3168 50.1307C59.2145 50.8239 59.1634 51.5076 59.1634 52.1818C59.1634 53.0833 59.2524 53.9962 59.4304 54.9205C59.6084 55.8447 59.849 56.7027 60.152 57.4943C60.455 58.286 60.7921 58.9318 61.1634 59.4318H59.6065C58.8868 58.4205 58.3395 57.3163 57.9645 56.1193C57.5895 54.9223 57.402 53.6098 57.402 52.1818ZM66.8011 46.2045C67.3201 46.2083 67.8314 46.303 68.3352 46.4886C68.839 46.6742 69.2936 46.9773 69.6989 47.3977C70.108 47.8182 70.4337 48.3864 70.6761 49.1023C70.9223 49.8144 71.0473 50.7008 71.0511 51.7614C71.0511 52.7803 70.9489 53.6875 70.7443 54.483C70.5398 55.2746 70.2462 55.9432 69.8636 56.4886C69.4848 57.0341 69.0246 57.4489 68.483 57.733C67.9413 58.017 67.3314 58.1591 66.6534 58.1591C65.9602 58.1591 65.3447 58.0227 64.8068 57.75C64.2689 57.4773 63.8314 57.1004 63.4943 56.6193C63.1572 56.1345 62.947 55.5777 62.8636 54.9489H64.5966C64.7102 55.4489 64.9413 55.8542 65.2898 56.1648C65.642 56.4716 66.0966 56.625 66.6534 56.625C67.5057 56.625 68.1705 56.2538 68.6477 55.5114C69.125 54.7652 69.3655 53.7235 69.3693 52.3864H69.2784C69.0814 52.7121 68.8352 52.9924 68.5398 53.2273C68.2481 53.4621 67.9205 53.6439 67.5568 53.7727C67.1932 53.9015 66.8049 53.9659 66.392 53.9659C65.7216 53.9659 65.1117 53.8011 64.5625 53.4716C64.0133 53.142 63.5758 52.6894 63.25 52.1136C62.9242 51.5379 62.7614 50.8807 62.7614 50.142C62.7614 49.4072 62.928 48.7405 63.2614 48.142C63.5985 47.5436 64.0682 47.0701 64.6705 46.7216C65.2765 46.3693 65.9867 46.197 66.8011 46.2045ZM66.8068 47.6818C66.3636 47.6818 65.964 47.7917 65.608 48.0114C65.2557 48.2273 64.9773 48.5208 64.7727 48.892C64.5682 49.2595 64.4659 49.6686 64.4659 50.1193C64.4659 50.5701 64.5644 50.9792 64.7614 51.3466C64.9621 51.7102 65.2348 52 65.5795 52.2159C65.928 52.428 66.3258 52.5341 66.7727 52.5341C67.1061 52.5341 67.4167 52.4697 67.7045 52.3409C67.9924 52.2121 68.2443 52.0341 68.4602 51.8068C68.6761 51.5758 68.8447 51.3144 68.9659 51.0227C69.0871 50.7311 69.1477 50.4242 69.1477 50.1023C69.1477 49.6742 69.0455 49.2765 68.8409 48.9091C68.6402 48.5417 68.3636 48.2462 68.0114 48.0227C67.6591 47.7955 67.2576 47.6818 66.8068 47.6818ZM77.0355 58.1591C76.2211 58.1591 75.5014 58.0189 74.8764 57.7386C74.2552 57.4583 73.7685 57.072 73.4162 56.5795C73.0639 56.0871 72.8897 55.5265 72.8935 54.8977C72.8897 54.4053 72.9901 53.9527 73.1946 53.5398C73.4029 53.1231 73.6851 52.7765 74.0412 52.5C74.3973 52.2197 74.795 52.0417 75.2344 51.9659V51.8977C74.6548 51.7576 74.1908 51.447 73.8423 50.9659C73.4938 50.4848 73.3215 49.9318 73.3253 49.3068C73.3215 48.7121 73.4787 48.1818 73.7969 47.7159C74.1188 47.2462 74.5601 46.8769 75.1207 46.608C75.6813 46.339 76.3196 46.2045 77.0355 46.2045C77.7438 46.2045 78.3764 46.3409 78.9332 46.6136C79.4938 46.8826 79.9351 47.2519 80.2571 47.7216C80.5791 48.1875 80.742 48.7159 80.7457 49.3068C80.742 49.9318 80.5639 50.4848 80.2116 50.9659C79.8594 51.447 79.401 51.7576 78.8366 51.8977V51.9659C79.2723 52.0417 79.6643 52.2197 80.0128 52.5C80.3651 52.7765 80.6454 53.1231 80.8537 53.5398C81.0658 53.9527 81.1738 54.4053 81.1776 54.8977C81.1738 55.5265 80.9957 56.0871 80.6435 56.5795C80.2912 57.072 79.8026 57.4583 79.1776 57.7386C78.5563 58.0189 77.8423 58.1591 77.0355 58.1591ZM77.0355 56.7216C77.5166 56.7216 77.9332 56.642 78.2855 56.483C78.6378 56.3201 78.9105 56.0947 79.1037 55.8068C79.2969 55.5152 79.3954 55.1742 79.3991 54.7841C79.3954 54.3788 79.2893 54.0208 79.081 53.7102C78.8764 53.3996 78.598 53.1553 78.2457 52.9773C77.8935 52.7992 77.4901 52.7102 77.0355 52.7102C76.5772 52.7102 76.17 52.7992 75.8139 52.9773C75.4579 53.1553 75.1776 53.3996 74.973 53.7102C74.7685 54.0208 74.6681 54.3788 74.6719 54.7841C74.6681 55.1742 74.7609 55.5152 74.9503 55.8068C75.1435 56.0947 75.4181 56.3201 75.7741 56.483C76.1302 56.642 76.5507 56.7216 77.0355 56.7216ZM77.0355 51.3068C77.4219 51.3068 77.7647 51.2292 78.0639 51.0739C78.3632 50.9186 78.598 50.7027 78.7685 50.4261C78.9427 50.1496 79.0317 49.8258 79.0355 49.4545C79.0317 49.0909 78.9446 48.7727 78.7741 48.5C78.6075 48.2273 78.3745 48.017 78.0753 47.8693C77.776 47.7178 77.4295 47.642 77.0355 47.642C76.634 47.642 76.2817 47.7178 75.9787 47.8693C75.6795 48.017 75.4465 48.2273 75.2798 48.5C75.1132 48.7727 75.0317 49.0909 75.0355 49.4545C75.0317 49.8258 75.1151 50.1496 75.2855 50.4261C75.456 50.7027 75.6908 50.9186 75.9901 51.0739C76.2931 51.2292 76.6416 51.3068 77.0355 51.3068ZM87.054 58.1591C86.3419 58.1591 85.7017 58.0227 85.1335 57.75C84.5691 57.4735 84.1184 57.0947 83.7812 56.6136C83.4441 56.1326 83.2642 55.5833 83.2415 54.9659H84.946C84.9877 55.4659 85.2093 55.8769 85.6108 56.1989C86.0123 56.5208 86.4934 56.6818 87.054 56.6818C87.5009 56.6818 87.8968 56.5795 88.2415 56.375C88.59 56.1667 88.8627 55.8807 89.0597 55.517C89.2604 55.1534 89.3608 54.7386 89.3608 54.2727C89.3608 53.7992 89.2585 53.3769 89.054 53.0057C88.8494 52.6345 88.5672 52.3428 88.2074 52.1307C87.8513 51.9186 87.4422 51.8106 86.9801 51.8068C86.6278 51.8068 86.2737 51.8674 85.9176 51.9886C85.5616 52.1098 85.2737 52.2689 85.054 52.4659L83.446 52.2273L84.0994 46.3636H90.4972V47.8693H85.5597L85.1903 51.125H85.2585C85.4858 50.9053 85.7869 50.7216 86.1619 50.5739C86.5407 50.4261 86.946 50.3523 87.3778 50.3523C88.0862 50.3523 88.7169 50.5208 89.2699 50.858C89.8267 51.1951 90.2642 51.6553 90.5824 52.2386C90.9044 52.8182 91.0634 53.4848 91.0597 54.2386C91.0634 54.9924 90.893 55.6648 90.5483 56.2557C90.2074 56.8466 89.7339 57.3125 89.1278 57.6534C88.5256 57.9905 87.8343 58.1591 87.054 58.1591ZM96.4247 52.1818C96.4247 53.6098 96.2372 54.9223 95.8622 56.1193C95.4872 57.3163 94.9399 58.4205 94.2202 59.4318H92.6634C92.9437 59.0568 93.205 58.5966 93.4474 58.0511C93.6899 57.5057 93.902 56.9091 94.0838 56.2614C94.2656 55.6098 94.4077 54.9356 94.5099 54.2386C94.6122 53.5417 94.6634 52.8561 94.6634 52.1818C94.6634 51.2841 94.5743 50.3731 94.3963 49.4489C94.2183 48.5246 93.9777 47.6667 93.6747 46.875C93.3717 46.0833 93.0346 45.4375 92.6634 44.9375H94.2202C94.9399 45.9489 95.4872 47.053 95.8622 48.25C96.2372 49.447 96.4247 50.7576 96.4247 52.1818ZM107.286 46.2045C107.804 46.2083 108.316 46.303 108.82 46.4886C109.323 46.6742 109.778 46.9773 110.183 47.3977C110.592 47.8182 110.918 48.3864 111.161 49.1023C111.407 49.8144 111.532 50.7008 111.536 51.7614C111.536 52.7803 111.433 53.6875 111.229 54.483C111.024 55.2746 110.731 55.9432 110.348 56.4886C109.969 57.0341 109.509 57.4489 108.967 57.733C108.426 58.017 107.816 58.1591 107.138 58.1591C106.445 58.1591 105.829 58.0227 105.291 57.75C104.753 57.4773 104.316 57.1004 103.979 56.6193C103.642 56.1345 103.431 55.5777 103.348 54.9489H105.081C105.195 55.4489 105.426 55.8542 105.774 56.1648C106.126 56.4716 106.581 56.625 107.138 56.625C107.99 56.625 108.655 56.2538 109.132 55.5114C109.609 54.7652 109.85 53.7235 109.854 52.3864H109.763C109.566 52.7121 109.32 52.9924 109.024 53.2273C108.732 53.4621 108.405 53.6439 108.041 53.7727C107.678 53.9015 107.289 53.9659 106.876 53.9659C106.206 53.9659 105.596 53.8011 105.047 53.4716C104.498 53.142 104.06 52.6894 103.734 52.1136C103.409 51.5379 103.246 50.8807 103.246 50.142C103.246 49.4072 103.412 48.7405 103.746 48.142C104.083 47.5436 104.553 47.0701 105.155 46.7216C105.761 46.3693 106.471 46.197 107.286 46.2045ZM107.291 47.6818C106.848 47.6818 106.448 47.7917 106.092 48.0114C105.74 48.2273 105.462 48.5208 105.257 48.892C105.053 49.2595 104.95 49.6686 104.95 50.1193C104.95 50.5701 105.049 50.9792 105.246 51.3466C105.446 51.7102 105.719 52 106.064 52.2159C106.412 52.428 106.81 52.5341 107.257 52.5341C107.59 52.5341 107.901 52.4697 108.189 52.3409C108.477 52.2121 108.729 52.0341 108.945 51.8068C109.161 51.5758 109.329 51.3144 109.45 51.0227C109.571 50.7311 109.632 50.4242 109.632 50.1023C109.632 49.6742 109.53 49.2765 109.325 48.9091C109.125 48.5417 108.848 48.2462 108.496 48.0227C108.143 47.7955 107.742 47.6818 107.291 47.6818ZM117.457 46.2045C117.976 46.2083 118.488 46.303 118.991 46.4886C119.495 46.6742 119.95 46.9773 120.355 47.3977C120.764 47.8182 121.09 48.3864 121.332 49.1023C121.579 49.8144 121.704 50.7008 121.707 51.7614C121.707 52.7803 121.605 53.6875 121.401 54.483C121.196 55.2746 120.902 55.9432 120.52 56.4886C120.141 57.0341 119.681 57.4489 119.139 57.733C118.598 58.017 117.988 58.1591 117.31 58.1591C116.616 58.1591 116.001 58.0227 115.463 57.75C114.925 57.4773 114.488 57.1004 114.151 56.6193C113.813 56.1345 113.603 55.5777 113.52 54.9489H115.253C115.366 55.4489 115.598 55.8542 115.946 56.1648C116.298 56.4716 116.753 56.625 117.31 56.625C118.162 56.625 118.827 56.2538 119.304 55.5114C119.781 54.7652 120.022 53.7235 120.026 52.3864H119.935C119.738 52.7121 119.491 52.9924 119.196 53.2273C118.904 53.4621 118.577 53.6439 118.213 53.7727C117.849 53.9015 117.461 53.9659 117.048 53.9659C116.378 53.9659 115.768 53.8011 115.219 53.4716C114.67 53.142 114.232 52.6894 113.906 52.1136C113.58 51.5379 113.418 50.8807 113.418 50.142C113.418 49.4072 113.584 48.7405 113.918 48.142C114.255 47.5436 114.724 47.0701 115.327 46.7216C115.933 46.3693 116.643 46.197 117.457 46.2045ZM117.463 47.6818C117.02 47.6818 116.62 47.7917 116.264 48.0114C115.912 48.2273 115.634 48.5208 115.429 48.892C115.224 49.2595 115.122 49.6686 115.122 50.1193C115.122 50.5701 115.221 50.9792 115.418 51.3466C115.618 51.7102 115.891 52 116.236 52.2159C116.584 52.428 116.982 52.5341 117.429 52.5341C117.762 52.5341 118.073 52.4697 118.361 52.3409C118.649 52.2121 118.901 52.0341 119.116 51.8068C119.332 51.5758 119.501 51.3144 119.622 51.0227C119.743 50.7311 119.804 50.4242 119.804 50.1023C119.804 49.6742 119.702 49.2765 119.497 48.9091C119.296 48.5417 119.02 48.2462 118.668 48.0227C118.315 47.7955 117.914 47.6818 117.463 47.6818ZM127.822 58.1591C127.304 58.1515 126.792 58.0568 126.288 57.875C125.788 57.6932 125.334 57.3902 124.925 56.9659C124.516 56.5417 124.188 55.9716 123.942 55.2557C123.699 54.5398 123.578 53.6458 123.578 52.5739C123.578 51.5587 123.679 50.6572 123.879 49.8693C124.084 49.0814 124.377 48.4167 124.76 47.875C125.143 47.3295 125.605 46.9148 126.146 46.6307C126.688 46.3466 127.296 46.2045 127.97 46.2045C128.663 46.2045 129.279 46.3409 129.817 46.6136C130.355 46.8864 130.79 47.2633 131.124 47.7443C131.461 48.2254 131.675 48.7727 131.766 49.3864H130.033C129.915 48.9015 129.682 48.5057 129.334 48.1989C128.985 47.892 128.531 47.7386 127.97 47.7386C127.118 47.7386 126.453 48.1098 125.976 48.8523C125.502 49.5947 125.264 50.6269 125.26 51.9489H125.345C125.546 51.6193 125.792 51.339 126.084 51.108C126.379 50.8731 126.709 50.6932 127.072 50.5682C127.44 50.4394 127.826 50.375 128.232 50.375C128.906 50.375 129.516 50.5398 130.061 50.8693C130.61 51.1951 131.048 51.6458 131.374 52.2216C131.699 52.7973 131.862 53.4564 131.862 54.1989C131.862 54.9413 131.694 55.6136 131.357 56.2159C131.023 56.8182 130.554 57.2955 129.947 57.6477C129.341 57.9962 128.633 58.1667 127.822 58.1591ZM127.817 56.6818C128.264 56.6818 128.663 56.572 129.016 56.3523C129.368 56.1326 129.646 55.8371 129.851 55.4659C130.055 55.0947 130.158 54.6799 130.158 54.2216C130.158 53.7746 130.057 53.3674 129.857 53C129.66 52.6326 129.387 52.3409 129.038 52.125C128.694 51.9091 128.3 51.8011 127.857 51.8011C127.519 51.8011 127.207 51.8655 126.919 51.9943C126.635 52.1231 126.385 52.3011 126.169 52.5284C125.953 52.7557 125.783 53.017 125.658 53.3125C125.536 53.6042 125.476 53.9129 125.476 54.2386C125.476 54.6742 125.576 55.0777 125.777 55.4489C125.982 55.8201 126.26 56.1193 126.612 56.3466C126.968 56.5701 127.37 56.6818 127.817 56.6818ZM142.217 58.1591C141.437 58.1591 140.74 58.0246 140.126 57.7557C139.517 57.4867 139.034 57.1136 138.678 56.6364C138.325 56.1553 138.136 55.5985 138.109 54.9659H139.893C139.916 55.3106 140.032 55.6098 140.24 55.8636C140.452 56.1136 140.729 56.3068 141.07 56.4432C141.411 56.5795 141.789 56.6477 142.206 56.6477C142.664 56.6477 143.07 56.5682 143.422 56.4091C143.778 56.25 144.056 56.0284 144.257 55.7443C144.458 55.4564 144.558 55.125 144.558 54.75C144.558 54.3598 144.458 54.017 144.257 53.7216C144.06 53.4223 143.77 53.1875 143.388 53.017C143.009 52.8466 142.551 52.7614 142.013 52.7614H141.03V51.3295H142.013C142.445 51.3295 142.823 51.2519 143.149 51.0966C143.479 50.9413 143.736 50.7254 143.922 50.4489C144.107 50.1686 144.2 49.8409 144.2 49.4659C144.2 49.1061 144.119 48.7936 143.956 48.5284C143.797 48.2595 143.57 48.0492 143.274 47.8977C142.982 47.7462 142.638 47.6705 142.24 47.6705C141.861 47.6705 141.507 47.7405 141.178 47.8807C140.852 48.017 140.587 48.214 140.382 48.4716C140.178 48.7254 140.068 49.0303 140.053 49.3864H138.354C138.373 48.7576 138.558 48.2045 138.911 47.7273C139.267 47.25 139.736 46.8769 140.32 46.608C140.903 46.339 141.551 46.2045 142.263 46.2045C143.009 46.2045 143.653 46.3504 144.195 46.642C144.74 46.9299 145.161 47.3144 145.456 47.7955C145.755 48.2765 145.903 48.803 145.899 49.375C145.903 50.0265 145.721 50.5795 145.354 51.0341C144.99 51.4886 144.505 51.7936 143.899 51.9489V52.0398C144.672 52.1572 145.27 52.464 145.695 52.9602C146.123 53.4564 146.335 54.072 146.331 54.8068C146.335 55.447 146.157 56.0208 145.797 56.5284C145.441 57.036 144.954 57.4356 144.337 57.7273C143.719 58.0152 143.013 58.1591 142.217 58.1591ZM152.53 58.1932C151.632 58.1894 150.865 57.9527 150.229 57.483C149.592 57.0133 149.106 56.3295 148.768 55.4318C148.431 54.5341 148.263 53.4527 148.263 52.1875C148.263 50.9261 148.431 49.8485 148.768 48.9545C149.109 48.0606 149.598 47.3788 150.234 46.9091C150.875 46.4394 151.64 46.2045 152.53 46.2045C153.42 46.2045 154.183 46.4413 154.82 46.9148C155.456 47.3845 155.943 48.0663 156.28 48.9602C156.621 49.8504 156.791 50.9261 156.791 52.1875C156.791 53.4564 156.623 54.5398 156.286 55.4375C155.948 56.3314 155.462 57.0152 154.825 57.4886C154.189 57.9583 153.424 58.1932 152.53 58.1932ZM152.53 56.6761C153.318 56.6761 153.933 56.2917 154.376 55.5227C154.823 54.7538 155.047 53.642 155.047 52.1875C155.047 51.2216 154.945 50.4053 154.74 49.7386C154.539 49.0682 154.25 48.5606 153.871 48.2159C153.496 47.8674 153.049 47.6932 152.53 47.6932C151.746 47.6932 151.13 48.0795 150.683 48.8523C150.236 49.625 150.011 50.7367 150.007 52.1875C150.007 53.1572 150.107 53.9773 150.308 54.6477C150.513 55.3144 150.803 55.8201 151.178 56.1648C151.553 56.5057 152.003 56.6761 152.53 56.6761ZM166.882 58.1591C166.17 58.1591 165.53 58.0227 164.962 57.75C164.397 57.4735 163.946 57.0947 163.609 56.6136C163.272 56.1326 163.092 55.5833 163.07 54.9659H164.774C164.816 55.4659 165.037 55.8769 165.439 56.1989C165.84 56.5208 166.321 56.6818 166.882 56.6818C167.329 56.6818 167.725 56.5795 168.07 56.375C168.418 56.1667 168.691 55.8807 168.888 55.517C169.089 55.1534 169.189 54.7386 169.189 54.2727C169.189 53.7992 169.087 53.3769 168.882 53.0057C168.678 52.6345 168.395 52.3428 168.036 52.1307C167.679 51.9186 167.27 51.8106 166.808 51.8068C166.456 51.8068 166.102 51.8674 165.746 51.9886C165.39 52.1098 165.102 52.2689 164.882 52.4659L163.274 52.2273L163.928 46.3636H170.325V47.8693H165.388L165.018 51.125H165.087C165.314 50.9053 165.615 50.7216 165.99 50.5739C166.369 50.4261 166.774 50.3523 167.206 50.3523C167.914 50.3523 168.545 50.5208 169.098 50.858C169.655 51.1951 170.092 51.6553 170.411 52.2386C170.732 52.8182 170.892 53.4848 170.888 54.2386C170.892 54.9924 170.721 55.6648 170.376 56.2557C170.036 56.8466 169.562 57.3125 168.956 57.6534C168.354 57.9905 167.662 58.1591 166.882 58.1591ZM177.026 58.1591C176.507 58.1515 175.995 58.0568 175.491 57.875C174.991 57.6932 174.537 57.3902 174.128 56.9659C173.719 56.5417 173.391 55.9716 173.145 55.2557C172.902 54.5398 172.781 53.6458 172.781 52.5739C172.781 51.5587 172.882 50.6572 173.082 49.8693C173.287 49.0814 173.58 48.4167 173.963 47.875C174.346 47.3295 174.808 46.9148 175.349 46.6307C175.891 46.3466 176.499 46.2045 177.173 46.2045C177.866 46.2045 178.482 46.3409 179.02 46.6136C179.558 46.8864 179.993 47.2633 180.327 47.7443C180.664 48.2254 180.878 48.7727 180.969 49.3864H179.236C179.118 48.9015 178.885 48.5057 178.537 48.1989C178.188 47.892 177.734 47.7386 177.173 47.7386C176.321 47.7386 175.656 48.1098 175.179 48.8523C174.705 49.5947 174.467 50.6269 174.463 51.9489H174.548C174.749 51.6193 174.995 51.339 175.287 51.108C175.582 50.8731 175.912 50.6932 176.276 50.5682C176.643 50.4394 177.029 50.375 177.435 50.375C178.109 50.375 178.719 50.5398 179.264 50.8693C179.813 51.1951 180.251 51.6458 180.577 52.2216C180.902 52.7973 181.065 53.4564 181.065 54.1989C181.065 54.9413 180.897 55.6136 180.56 56.2159C180.226 56.8182 179.757 57.2955 179.151 57.6477C178.545 57.9962 177.836 58.1667 177.026 58.1591ZM177.02 56.6818C177.467 56.6818 177.866 56.572 178.219 56.3523C178.571 56.1326 178.849 55.8371 179.054 55.4659C179.259 55.0947 179.361 54.6799 179.361 54.2216C179.361 53.7746 179.26 53.3674 179.06 53C178.863 52.6326 178.59 52.3409 178.241 52.125C177.897 51.9091 177.503 51.8011 177.06 51.8011C176.723 51.8011 176.41 51.8655 176.122 51.9943C175.838 52.1231 175.588 52.3011 175.372 52.5284C175.156 52.7557 174.986 53.017 174.861 53.3125C174.74 53.6042 174.679 53.9129 174.679 54.2386C174.679 54.6742 174.779 55.0777 174.98 55.4489C175.185 55.8201 175.463 56.1193 175.815 56.3466C176.171 56.5701 176.573 56.6818 177.02 56.6818Z" fill="white"/>
<path d="M22.1236 85.2225C22.1231 85.2022 22.1221 85.1818 22.1205 85.1616C22.1192 85.1442 22.1175 85.127 22.1153 85.1098C22.1107 85.0729 22.1042 85.0363 22.0961 85C22.0879 84.9642 22.078 84.9288 22.0665 84.8939C22.0608 84.8766 22.0543 84.8595 22.0477 84.8424C22.0347 84.8082 22.0197 84.7747 22.0029 84.7422C21.9946 84.7258 21.9861 84.7096 21.9771 84.6938C21.968 84.678 21.9586 84.6625 21.9487 84.6472C21.9185 84.5993 21.8844 84.5538 21.847 84.5112C21.8408 84.5041 21.8356 84.4967 21.8292 84.4898C21.824 84.484 21.818 84.479 21.8125 84.4733C21.7988 84.459 21.7847 84.4452 21.7703 84.4317C21.7571 84.4192 21.7439 84.4069 21.7302 84.3952C21.7166 84.3837 21.7027 84.3725 21.6886 84.3617C21.6734 84.3498 21.6579 84.3382 21.6421 84.327C21.6283 84.3174 21.6141 84.3085 21.5999 84.2995C21.5834 84.2888 21.5666 84.2786 21.5495 84.2688C21.5345 84.2604 21.519 84.2529 21.5036 84.2451C21.4867 84.2367 21.4699 84.2281 21.4526 84.2205C21.4358 84.2131 21.4186 84.2067 21.4013 84.2C21.3848 84.1937 21.3683 84.1873 21.3517 84.1818C21.3334 84.1758 21.3148 84.1708 21.2963 84.1658C21.2795 84.1612 21.263 84.1566 21.2461 84.1528C21.2276 84.1489 21.209 84.1454 21.1903 84.1423C21.1724 84.1391 21.1543 84.1363 21.1362 84.134C21.1186 84.132 21.1009 84.1304 21.0833 84.1292C21.0632 84.1276 21.0432 84.1266 21.0232 84.1261C21.0154 84.126 21.0078 84.125 21 84.125H3C2.99213 84.125 2.98462 84.1259 2.97684 84.1261C2.95669 84.1266 2.93663 84.1277 2.91656 84.1292C2.89897 84.1304 2.8814 84.132 2.86388 84.134C2.84559 84.1363 2.8275 84.1393 2.80931 84.1424C2.79084 84.1455 2.77228 84.1487 2.754 84.1528C2.73703 84.1566 2.72016 84.1612 2.70319 84.1659C2.68491 84.1709 2.66663 84.1758 2.64872 84.1817C2.63156 84.1873 2.61478 84.1939 2.59791 84.2003C2.58103 84.2068 2.56416 84.2131 2.54766 84.2203C2.53012 84.2281 2.51297 84.2368 2.49572 84.2454C2.48063 84.253 2.46544 84.2604 2.45072 84.2686C2.43347 84.2784 2.41659 84.289 2.39972 84.2997C2.38566 84.3086 2.37159 84.3174 2.358 84.3269C2.34206 84.3379 2.32669 84.3498 2.31122 84.3618C2.29716 84.3727 2.28328 84.3836 2.26987 84.3951C2.25614 84.4069 2.2427 84.4191 2.22956 84.4317C2.21522 84.4453 2.20106 84.459 2.18747 84.4733C2.18203 84.4789 2.17603 84.484 2.17069 84.4898C2.16441 84.4967 2.15916 84.5041 2.15297 84.5112C2.12822 84.5395 2.10488 84.5691 2.08303 84.5997C2.07197 84.6153 2.06147 84.6312 2.05116 84.6472C2.04141 84.6626 2.03194 84.678 2.02294 84.6938C2.01384 84.7096 2.00541 84.7258 1.99716 84.7422C1.98872 84.7587 1.98066 84.7752 1.97316 84.7918C1.96579 84.8085 1.95885 84.8254 1.95234 84.8424C1.94569 84.8594 1.93922 84.8766 1.93341 84.8939C1.92769 84.9113 1.92253 84.9288 1.91756 84.9464C1.91259 84.9643 1.90791 84.9821 1.90388 84.9999C1.89575 85.0362 1.88933 85.0729 1.88466 85.1098C1.88253 85.127 1.88081 85.1442 1.8795 85.1615C1.87788 85.1818 1.87684 85.2021 1.87641 85.2224C1.87622 85.2318 1.875 85.2407 1.875 85.25V98C1.87557 98.4971 2.0733 98.9737 2.42481 99.3252C2.77631 99.6767 3.25289 99.8744 3.75 99.875H20.25C20.7471 99.8744 21.2237 99.6767 21.5752 99.3252C21.9267 98.9737 22.1244 98.4971 22.125 98V85.25C22.125 85.2406 22.1238 85.2317 22.1236 85.2225ZM18.1079 86.375L12 91.9738L5.89219 86.375H18.1079ZM4.125 97.625V87.8073L11.2399 94.3293C11.4473 94.5195 11.7186 94.625 12 94.625C12.2814 94.625 12.5527 94.5195 12.7601 94.3293L19.875 87.8073V97.625H4.125Z" fill="white"/>
<path d="M34.688 90.848C34.976 90.3467 35.4027 89.9307 35.968 89.6C36.544 89.2587 37.2107 89.088 37.968 89.088C38.7467 89.088 39.4507 89.2747 40.08 89.648C40.72 90.0213 41.2213 90.5493 41.584 91.232C41.9467 91.904 42.128 92.688 42.128 93.584C42.128 94.4693 41.9467 95.2587 41.584 95.952C41.2213 96.6453 40.72 97.184 40.08 97.568C39.4507 97.952 38.7467 98.144 37.968 98.144C37.2213 98.144 36.56 97.9787 35.984 97.648C35.4187 97.3067 34.9867 96.8853 34.688 96.384V102.16H33.232V89.232H34.688V90.848ZM40.64 93.584C40.64 92.9227 40.5067 92.3467 40.24 91.856C39.9733 91.3653 39.6107 90.992 39.152 90.736C38.704 90.48 38.208 90.352 37.664 90.352C37.1307 90.352 36.6347 90.4853 36.176 90.752C35.728 91.008 35.3653 91.3867 35.088 91.888C34.8213 92.3787 34.688 92.9493 34.688 93.6C34.688 94.2613 34.8213 94.8427 35.088 95.344C35.3653 95.8347 35.728 96.2133 36.176 96.48C36.6347 96.736 37.1307 96.864 37.664 96.864C38.208 96.864 38.704 96.736 39.152 96.48C39.6107 96.2133 39.9733 95.8347 40.24 95.344C40.5067 94.8427 40.64 94.256 40.64 93.584ZM45.5005 90.656C45.7565 90.1547 46.1192 89.7653 46.5885 89.488C47.0685 89.2107 47.6498 89.072 48.3325 89.072V90.576H47.9485C46.3165 90.576 45.5005 91.4613 45.5005 93.232V98H44.0445V89.232H45.5005V90.656ZM50.7653 87.808C50.4879 87.808 50.2533 87.712 50.0613 87.52C49.8693 87.328 49.7733 87.0933 49.7733 86.816C49.7733 86.5387 49.8693 86.304 50.0613 86.112C50.2533 85.92 50.4879 85.824 50.7653 85.824C51.0319 85.824 51.2559 85.92 51.4373 86.112C51.6293 86.304 51.7253 86.5387 51.7253 86.816C51.7253 87.0933 51.6293 87.328 51.4373 87.52C51.2559 87.712 51.0319 87.808 50.7653 87.808ZM51.4693 89.232V98H50.0133V89.232H51.4693ZM58.8468 98L55.4068 94.128V98H53.9508V86.16H55.4068V93.12L58.7828 89.232H60.8148L56.6868 93.6L60.8308 98H58.8468ZM66.5371 89.072C67.1985 89.072 67.7958 89.216 68.3291 89.504C68.8625 89.7813 69.2785 90.2027 69.5771 90.768C69.8865 91.3333 70.0411 92.0213 70.0411 92.832V98H68.6011V93.04C68.6011 92.1653 68.3825 91.4987 67.9451 91.04C67.5078 90.5707 66.9105 90.336 66.1531 90.336C65.3851 90.336 64.7718 90.576 64.3131 91.056C63.8651 91.536 63.6411 92.2347 63.6411 93.152V98H62.1851V86.16H63.6411V90.48C63.9291 90.032 64.3238 89.6853 64.8251 89.44C65.3371 89.1947 65.9078 89.072 66.5371 89.072ZM72.8835 98.096C72.6062 98.096 72.3715 98 72.1795 97.808C71.9875 97.616 71.8915 97.3813 71.8915 97.104C71.8915 96.8267 71.9875 96.592 72.1795 96.4C72.3715 96.208 72.6062 96.112 72.8835 96.112C73.1502 96.112 73.3742 96.208 73.5555 96.4C73.7475 96.592 73.8435 96.8267 73.8435 97.104C73.8435 97.3813 73.7475 97.616 73.5555 97.808C73.3742 98 73.1502 98.096 72.8835 98.096ZM77.2349 86.16V98H75.7789V86.16H77.2349ZM80.4684 87.808C80.191 87.808 79.9564 87.712 79.7644 87.52C79.5724 87.328 79.4764 87.0933 79.4764 86.816C79.4764 86.5387 79.5724 86.304 79.7644 86.112C79.9564 85.92 80.191 85.824 80.4684 85.824C80.735 85.824 80.959 85.92 81.1404 86.112C81.3324 86.304 81.4284 86.5387 81.4284 86.816C81.4284 87.0933 81.3324 87.328 81.1404 87.52C80.959 87.712 80.735 87.808 80.4684 87.808ZM81.1724 89.232V98H79.7164V89.232H81.1724ZM84.7419 96.8H89.0459V98H83.0779V96.8L87.3339 90.416H83.1099V89.232H89.0139V90.416L84.7419 96.8ZM98.9351 87.744C100.119 87.744 101.148 87.968 102.023 88.416C102.898 88.864 103.57 89.4933 104.039 90.304C104.508 91.104 104.743 92.032 104.743 93.088C104.743 93.9307 104.604 94.7413 104.327 95.52C104.05 96.288 103.644 96.912 103.111 97.392C102.588 97.872 101.975 98.112 101.271 98.112C100.738 98.112 100.327 97.9787 100.039 97.712C99.7511 97.4453 99.5858 97.0827 99.5431 96.624C99.2125 97.0827 98.7911 97.4453 98.2791 97.712C97.7778 97.9787 97.2445 98.112 96.6791 98.112C95.8685 98.112 95.2285 97.8667 94.7591 97.376C94.3005 96.8747 94.0711 96.2027 94.0711 95.36C94.0711 94.56 94.2365 93.8133 94.5671 93.12C94.9085 92.4267 95.3778 91.872 95.9751 91.456C96.5725 91.0293 97.2498 90.816 98.0071 90.816C99.0205 90.816 99.7031 91.2 100.055 91.968L100.231 90.976H101.495L100.695 95.6C100.663 95.8027 100.647 95.9893 100.647 96.16C100.647 96.8 100.93 97.12 101.495 97.12C101.922 97.12 102.29 96.9173 102.599 96.512C102.919 96.1067 103.159 95.6 103.319 94.992C103.479 94.3733 103.559 93.7653 103.559 93.168C103.559 91.7707 103.138 90.688 102.295 89.92C101.463 89.152 100.284 88.768 98.7591 88.768C97.4898 88.768 96.3431 89.0773 95.3191 89.696C94.3058 90.304 93.5111 91.1413 92.9351 92.208C92.3591 93.2747 92.0711 94.4533 92.0711 95.744C92.0605 97.152 92.4818 98.2347 93.3351 98.992C94.1885 99.76 95.3725 100.144 96.8871 100.144C97.8898 100.144 98.7751 99.9627 99.5431 99.6L99.7351 100.592C98.7858 100.987 97.7405 101.184 96.5991 101.184C95.4578 101.184 94.4498 100.965 93.5751 100.528C92.7111 100.101 92.0391 99.4827 91.5591 98.672C91.0898 97.872 90.8551 96.9387 90.8551 95.872C90.8551 94.368 91.2018 92.9973 91.8951 91.76C92.5885 90.512 93.5485 89.5307 94.7751 88.816C96.0125 88.1013 97.3991 87.744 98.9351 87.744ZM97.1111 96.976C97.5911 96.976 98.0338 96.8373 98.4391 96.56C98.8445 96.272 99.1645 95.888 99.3991 95.408C99.6338 94.9173 99.7511 94.384 99.7511 93.808C99.7511 93.2533 99.5965 92.8053 99.2871 92.464C98.9885 92.112 98.5618 91.936 98.0071 91.936C97.4951 91.936 97.0418 92.0907 96.6471 92.4C96.2631 92.6987 95.9645 93.0987 95.7511 93.6C95.5378 94.0907 95.4311 94.6027 95.4311 95.136C95.4311 95.7013 95.5751 96.1493 95.8631 96.48C96.1511 96.8107 96.5671 96.976 97.1111 96.976ZM114.69 89.232L109.41 102.128H107.906L109.634 97.904L106.098 89.232H107.714L110.466 96.336L113.186 89.232H114.69ZM115.61 93.584C115.61 92.688 115.791 91.904 116.154 91.232C116.517 90.5493 117.013 90.0213 117.642 89.648C118.282 89.2747 118.991 89.088 119.77 89.088C120.538 89.088 121.205 89.2533 121.77 89.584C122.335 89.9147 122.757 90.3307 123.034 90.832V89.232H124.506V98H123.034V96.368C122.746 96.88 122.314 97.3067 121.738 97.648C121.173 97.9787 120.511 98.144 119.754 98.144C118.975 98.144 118.271 97.952 117.642 97.568C117.013 97.184 116.517 96.6453 116.154 95.952C115.791 95.2587 115.61 94.4693 115.61 93.584ZM123.034 93.6C123.034 92.9387 122.901 92.3627 122.634 91.872C122.367 91.3813 122.005 91.008 121.546 90.752C121.098 90.4853 120.602 90.352 120.058 90.352C119.514 90.352 119.018 90.48 118.57 90.736C118.122 90.992 117.765 91.3653 117.498 91.856C117.231 92.3467 117.098 92.9227 117.098 93.584C117.098 94.256 117.231 94.8427 117.498 95.344C117.765 95.8347 118.122 96.2133 118.57 96.48C119.018 96.736 119.514 96.864 120.058 96.864C120.602 96.864 121.098 96.736 121.546 96.48C122.005 96.2133 122.367 95.8347 122.634 95.344C122.901 94.8427 123.034 94.2613 123.034 93.6ZM131.238 89.072C132.305 89.072 133.169 89.3973 133.83 90.048C134.492 90.688 134.822 91.616 134.822 92.832V98H133.382V93.04C133.382 92.1653 133.164 91.4987 132.726 91.04C132.289 90.5707 131.692 90.336 130.934 90.336C130.166 90.336 129.553 90.576 129.094 91.056C128.646 91.536 128.422 92.2347 128.422 93.152V98H126.966V89.232H128.422V90.48C128.71 90.032 129.1 89.6853 129.59 89.44C130.092 89.1947 130.641 89.072 131.238 89.072ZM136.657 93.584C136.657 92.688 136.838 91.904 137.201 91.232C137.563 90.5493 138.059 90.0213 138.689 89.648C139.329 89.2747 140.043 89.088 140.833 89.088C141.515 89.088 142.15 89.248 142.737 89.568C143.323 89.8773 143.771 90.288 144.081 90.8V86.16H145.553V98H144.081V96.352C143.793 96.8747 143.366 97.3067 142.801 97.648C142.235 97.9787 141.574 98.144 140.817 98.144C140.038 98.144 139.329 97.952 138.689 97.568C138.059 97.184 137.563 96.6453 137.201 95.952C136.838 95.2587 136.657 94.4693 136.657 93.584ZM144.081 93.6C144.081 92.9387 143.947 92.3627 143.681 91.872C143.414 91.3813 143.051 91.008 142.593 90.752C142.145 90.4853 141.649 90.352 141.105 90.352C140.561 90.352 140.065 90.48 139.617 90.736C139.169 90.992 138.811 91.3653 138.545 91.856C138.278 92.3467 138.145 92.9227 138.145 93.584C138.145 94.256 138.278 94.8427 138.545 95.344C138.811 95.8347 139.169 96.2133 139.617 96.48C140.065 96.736 140.561 96.864 141.105 96.864C141.649 96.864 142.145 96.736 142.593 96.48C143.051 96.2133 143.414 95.8347 143.681 95.344C143.947 94.8427 144.081 94.2613 144.081 93.6ZM156.013 93.28C156.013 93.5573 155.997 93.8507 155.965 94.16H148.957C149.011 95.024 149.304 95.7013 149.837 96.192C150.381 96.672 151.037 96.912 151.805 96.912C152.435 96.912 152.957 96.768 153.373 96.48C153.8 96.1813 154.099 95.7867 154.269 95.296H155.837C155.603 96.1387 155.133 96.8267 154.429 97.36C153.725 97.8827 152.851 98.144 151.805 98.144C150.973 98.144 150.227 97.9573 149.565 97.584C148.915 97.2107 148.403 96.6827 148.029 96C147.656 95.3067 147.469 94.5067 147.469 93.6C147.469 92.6933 147.651 91.8987 148.013 91.216C148.376 90.5333 148.883 90.0107 149.533 89.648C150.195 89.2747 150.952 89.088 151.805 89.088C152.637 89.088 153.373 89.2693 154.013 89.632C154.653 89.9947 155.144 90.496 155.485 91.136C155.837 91.7653 156.013 92.48 156.013 93.28ZM154.509 92.976C154.509 92.4213 154.387 91.9467 154.141 91.552C153.896 91.1467 153.56 90.8427 153.133 90.64C152.717 90.4267 152.253 90.32 151.741 90.32C151.005 90.32 150.376 90.5547 149.853 91.024C149.341 91.4933 149.048 92.144 148.973 92.976H154.509ZM162.511 98L160.431 94.736L158.431 98H156.911L159.743 93.648L156.911 89.232H158.559L160.639 92.48L162.623 89.232H164.143L161.327 93.568L164.159 98H162.511ZM166.055 98.096C165.778 98.096 165.543 98 165.351 97.808C165.159 97.616 165.063 97.3813 165.063 97.104C165.063 96.8267 165.159 96.592 165.351 96.4C165.543 96.208 165.778 96.112 166.055 96.112C166.322 96.112 166.546 96.208 166.727 96.4C166.919 96.592 167.015 96.8267 167.015 97.104C167.015 97.3813 166.919 97.616 166.727 97.808C166.546 98 166.322 98.096 166.055 98.096ZM170.407 90.656C170.663 90.1547 171.025 89.7653 171.495 89.488C171.975 89.2107 172.556 89.072 173.239 89.072V90.576H172.855C171.223 90.576 170.407 91.4613 170.407 93.232V98H168.951V89.232H170.407V90.656ZM182.696 89.232V98H181.24V96.704C180.962 97.152 180.573 97.504 180.072 97.76C179.581 98.0053 179.037 98.128 178.44 98.128C177.757 98.128 177.144 97.9893 176.6 97.712C176.056 97.424 175.624 96.9973 175.304 96.432C174.994 95.8667 174.84 95.1787 174.84 94.368V89.232H176.28V94.176C176.28 95.04 176.498 95.7067 176.936 96.176C177.373 96.6347 177.97 96.864 178.728 96.864C179.506 96.864 180.12 96.624 180.568 96.144C181.016 95.664 181.24 94.9653 181.24 94.048V89.232H182.696Z" fill="white"/>
</svg>
