<svg width="55" height="55" viewBox="0 0 55 55" fill="none" xmlns="http://www.w3.org/2000/svg">
<path d="M43.3417 38.5034H39.5966C38.1786 38.5034 37.7403 37.3759 35.1931 34.7943C32.9742 32.6459 31.9928 32.3572 31.448 32.3572C30.6831 32.3572 30.4649 32.5754 30.4649 33.6307V37.0132C30.4649 37.9242 30.1744 38.469 27.7733 38.469C22.9299 38.1442 18.767 35.5025 16.3505 31.6525L16.3144 31.5923C13.5094 28.1084 11.4417 23.9095 10.4191 19.317L10.3813 19.1159C10.3813 18.5711 10.5995 18.0606 11.6549 18.0606H15.4C16.3453 18.0606 16.7097 18.4972 17.0758 19.5147C18.9286 24.8634 22.0224 29.5556 23.2959 29.5556C23.7686 29.5556 23.9869 29.3373 23.9869 28.1376V22.605C23.8408 20.0578 22.495 19.8412 22.495 18.932C22.5105 18.4456 22.9092 18.0571 23.3974 18.0571C23.4128 18.0571 23.4266 18.0571 23.442 18.0589H23.4403H29.3339C30.1349 18.0589 30.4253 18.4954 30.4253 19.4407V26.9001C30.4253 27.6993 30.7897 27.9915 31.008 27.9915C31.4806 27.9915 31.8828 27.6993 32.7542 26.8279C34.5658 24.6159 36.1144 22.0859 37.2952 19.3582L37.3742 19.152C37.6235 18.5281 38.2216 18.095 38.9211 18.095C38.9538 18.095 38.9847 18.0967 39.0174 18.0984H39.0122H42.7574C43.8849 18.0984 44.141 18.6776 43.8849 19.4803C42.3827 22.7889 40.6949 25.6317 38.7389 28.2648L38.8283 28.1376C38.4295 28.7925 38.2835 29.0829 38.8283 29.8134C39.227 30.3582 40.5385 31.4857 41.4116 32.505C42.6749 33.7545 43.7336 35.2086 44.5328 36.8139L44.5758 36.9084C44.9402 37.9603 44.3936 38.5068 43.3383 38.5068L43.3417 38.5034ZM35.4131 1.72559H19.5886C5.14595 1.72559 1.72736 5.14418 1.72736 19.5868V35.4114C1.72736 49.854 5.14595 53.2726 19.5886 53.2726H35.4131C49.8558 53.2726 53.2744 49.854 53.2744 35.4114V19.5868C53.2744 5.14418 49.818 1.72559 35.4131 1.72559Z" fill="white"/>
</svg>
