<svg width="32" height="28" viewBox="0 0 32 28" fill="none" xmlns="http://www.w3.org/2000/svg">
<path fill-rule="evenodd" clip-rule="evenodd" d="M7.92048 4.01014L10.8303 18.8231L26.6243 17.882L29.8103 3.83885H18.8391L7.92048 4.01014ZM10.369 20.0003C10.1012 20.0003 9.8663 19.8081 9.81369 19.5378L6.70751 3.7218L4.29378 1.14861H0.567493C0.25462 1.14861 0 0.891672 0 0.574781C0 0.256939 0.25462 0 0.567493 0H4.53713C4.69309 0 4.84154 0.0647104 4.94865 0.178905L7.47137 2.8682L18.8306 2.69024H30.5225C30.6954 2.69024 30.8589 2.77018 30.966 2.90721C31.074 3.04425 31.1144 3.22315 31.075 3.39349L27.6343 18.5586C27.5779 18.8069 27.3665 18.9887 27.1157 19.003L10.4037 19.9993C10.3925 20.0003 10.3812 20.0003 10.369 20.0003Z" fill="#231F20"/>
<path fill-rule="evenodd" clip-rule="evenodd" d="M27.6493 22.3362H10.4451C10.1322 22.3362 9.87758 22.0783 9.87758 21.7614V19.4251C9.87758 19.1083 10.1322 18.8513 10.4451 18.8513C10.7579 18.8513 11.0126 19.1083 11.0126 19.4251V21.1866H27.6493C27.9622 21.1866 28.2168 21.4445 28.2168 21.7614C28.2168 22.0783 27.9622 22.3362 27.6493 22.3362Z" fill="#231F20"/>
<path fill-rule="evenodd" clip-rule="evenodd" d="M13.5459 25.0071C13.5459 26.2442 12.5556 27.2472 11.3342 27.2472C10.1127 27.2472 9.12244 26.2442 9.12244 25.0071C9.12244 23.77 10.1127 22.767 11.3342 22.767C12.5556 22.767 13.5459 23.77 13.5459 25.0071Z" fill="#231F20"/>
<path fill-rule="evenodd" clip-rule="evenodd" d="M28.443 25.0071C28.443 26.2442 27.4527 27.2472 26.2312 27.2472C25.0098 27.2472 24.0195 26.2442 24.0195 25.0071C24.0195 23.77 25.0098 22.767 26.2312 22.767C27.4527 22.767 28.443 23.77 28.443 25.0071Z" fill="#231F20"/>
</svg>
