<svg width="153" height="160" viewBox="0 0 153 160" fill="none" xmlns="http://www.w3.org/2000/svg">
<g clip-path="url(#clip0_228_112)">
<rect width="153" height="160" rx="14" fill="white"/>
<rect width="153" height="160.188" rx="14" fill="white"/>
<rect x="1" y="1" width="151" height="158.188" rx="13" stroke="#80A5B3" stroke-opacity="0.701961" stroke-width="2"/>
<path d="M25.88 56.68C28.44 54.5467 30.48 52.7733 32 51.36C33.52 49.92 34.7867 48.4267 35.8 46.88C36.8133 45.3333 37.32 43.8133 37.32 42.32C37.32 40.96 37 39.8933 36.36 39.12C35.72 38.3467 34.7333 37.96 33.4 37.96C32.0667 37.96 31.04 38.4133 30.32 39.32C29.6 40.2 29.2267 41.4133 29.2 42.96H23.76C23.8667 39.76 24.8133 37.3333 26.6 35.68C28.4133 34.0267 30.7067 33.2 33.48 33.2C36.52 33.2 38.8533 34.0133 40.48 35.64C42.1067 37.24 42.92 39.36 42.92 42C42.92 44.08 42.36 46.0667 41.24 47.96C40.12 49.8533 38.84 51.5067 37.4 52.92C35.96 54.3067 34.08 55.9867 31.76 57.96H43.56V62.6H23.8V58.44L25.88 56.68ZM47.0888 48.04C47.0888 43.4267 47.9154 39.8133 49.5688 37.2C51.2488 34.5867 54.0221 33.28 57.8888 33.28C61.7554 33.28 64.5154 34.5867 66.1688 37.2C67.8488 39.8133 68.6888 43.4267 68.6888 48.04C68.6888 52.68 67.8488 56.32 66.1688 58.96C64.5154 61.6 61.7554 62.92 57.8888 62.92C54.0221 62.92 51.2488 61.6 49.5688 58.96C47.9154 56.32 47.0888 52.68 47.0888 48.04ZM63.1688 48.04C63.1688 46.0667 63.0354 44.4133 62.7688 43.08C62.5288 41.72 62.0221 40.6133 61.2488 39.76C60.5021 38.9067 59.3821 38.48 57.8888 38.48C56.3954 38.48 55.2621 38.9067 54.4888 39.76C53.7421 40.6133 53.2354 41.72 52.9688 43.08C52.7288 44.4133 52.6088 46.0667 52.6088 48.04C52.6088 50.0667 52.7288 51.7733 52.9688 53.16C53.2088 54.52 53.7154 55.6267 54.4888 56.48C55.2621 57.3067 56.3954 57.72 57.8888 57.72C59.3821 57.72 60.5154 57.3067 61.2888 56.48C62.0621 55.6267 62.5688 54.52 62.8088 53.16C63.0488 51.7733 63.1688 50.0667 63.1688 48.04ZM94.5081 51.2H86.9481V58.96H81.6681V51.2H74.1081V46.32H81.6681V38.56H86.9481V46.32H94.5081V51.2Z" fill="#506A7B" fill-opacity="0.8"/>
<path d="M37.86 102H36.08V92.74H32.92C32.7867 94.4333 32.62 95.88 32.42 97.08C32.22 98.2667 31.9667 99.2333 31.66 99.98C31.3533 100.727 30.9867 101.273 30.56 101.62C30.1333 101.967 29.6333 102.14 29.06 102.14C28.8867 102.14 28.7133 102.127 28.54 102.1C28.38 102.087 28.2467 102.053 28.14 102V100.68C28.22 100.707 28.3067 100.727 28.4 100.74C28.4933 100.753 28.5867 100.76 28.68 100.76C28.9733 100.76 29.24 100.64 29.48 100.4C29.72 100.16 29.9333 99.7933 30.12 99.3C30.32 98.8067 30.5 98.1867 30.66 97.44C30.82 96.68 30.96 95.7867 31.08 94.76C31.2 93.7333 31.3067 92.5733 31.4 91.28H37.86V102ZM45.4025 91.08C46.3225 91.08 47.1092 91.28 47.7625 91.68C48.4292 92.08 48.9358 92.6467 49.2825 93.38C49.6425 94.1 49.8225 94.9467 49.8225 95.92V96.98H42.4825C42.5092 98.1933 42.8158 99.12 43.4025 99.76C44.0025 100.387 44.8358 100.7 45.9025 100.7C46.5825 100.7 47.1825 100.64 47.7025 100.52C48.2358 100.387 48.7825 100.2 49.3425 99.96V101.5C48.7958 101.74 48.2558 101.913 47.7225 102.02C47.1892 102.14 46.5558 102.2 45.8225 102.2C44.8092 102.2 43.9092 101.993 43.1225 101.58C42.3492 101.167 41.7425 100.553 41.3025 99.74C40.8758 98.9133 40.6625 97.9067 40.6625 96.72C40.6625 95.5467 40.8558 94.54 41.2425 93.7C41.6425 92.86 42.1958 92.2133 42.9025 91.76C43.6225 91.3067 44.4558 91.08 45.4025 91.08ZM45.3825 92.52C44.5425 92.52 43.8758 92.7933 43.3825 93.34C42.9025 93.8733 42.6158 94.62 42.5225 95.58H47.9825C47.9825 94.9667 47.8892 94.4333 47.7025 93.98C47.5158 93.5267 47.2292 93.1733 46.8425 92.92C46.4692 92.6533 45.9825 92.52 45.3825 92.52ZM59.9516 92.76H56.4516V102H54.7116V92.76H51.2516V91.28H59.9516V92.76ZM39.02 125.62C39.02 126.513 38.9 127.307 38.66 128C38.4333 128.68 38.1 129.26 37.66 129.74C37.2333 130.22 36.7067 130.587 36.08 130.84C35.4667 131.08 34.78 131.2 34.02 131.2C33.3133 131.2 32.66 131.08 32.06 130.84C31.46 130.587 30.94 130.22 30.5 129.74C30.06 129.26 29.7133 128.68 29.46 128C29.22 127.307 29.1 126.513 29.1 125.62C29.1 124.433 29.3 123.433 29.7 122.62C30.1 121.793 30.6733 121.167 31.42 120.74C32.1667 120.3 33.0533 120.08 34.08 120.08C35.0533 120.08 35.9067 120.3 36.64 120.74C37.3867 121.167 37.9667 121.793 38.38 122.62C38.8067 123.433 39.02 124.433 39.02 125.62ZM30.92 125.62C30.92 126.46 31.0267 127.193 31.24 127.82C31.4667 128.433 31.8133 128.907 32.28 129.24C32.7467 129.573 33.34 129.74 34.06 129.74C34.78 129.74 35.3733 129.573 35.84 129.24C36.3067 128.907 36.6467 128.433 36.86 127.82C37.0867 127.193 37.2 126.46 37.2 125.62C37.2 124.767 37.0867 124.04 36.86 123.44C36.6333 122.84 36.2867 122.38 35.82 122.06C35.3667 121.727 34.7733 121.56 34.04 121.56C32.9467 121.56 32.1533 121.92 31.66 122.64C31.1667 123.36 30.92 124.353 30.92 125.62ZM50.8694 120.28V131H49.1094V121.78H43.5694V131H41.8094V120.28H50.8694ZM54.2898 131V120.28H56.0498V124.68H58.8298C59.7632 124.68 60.5298 124.793 61.1298 125.02C61.7298 125.247 62.1765 125.587 62.4698 126.04C62.7632 126.48 62.9098 127.04 62.9098 127.72C62.9098 128.387 62.7632 128.967 62.4698 129.46C62.1898 129.953 61.7432 130.333 61.1298 130.6C60.5298 130.867 59.7365 131 58.7498 131H54.2898ZM58.5898 129.58C59.3498 129.58 59.9698 129.453 60.4498 129.2C60.9298 128.933 61.1698 128.473 61.1698 127.82C61.1698 127.167 60.9498 126.727 60.5098 126.5C60.0698 126.26 59.4365 126.14 58.6098 126.14H56.0498V129.58H58.5898ZM64.6898 131V120.28H66.4498V131H64.6898ZM77.2563 121.76H73.7563V131H72.0163V121.76H68.5563V120.28H77.2563V121.76ZM83.428 120.1C84.7346 120.1 85.7013 120.387 86.328 120.96C86.9546 121.533 87.268 122.447 87.268 123.7V131H85.988L85.648 129.48H85.568C85.2613 129.867 84.9413 130.193 84.608 130.46C84.288 130.713 83.9146 130.9 83.488 131.02C83.0746 131.14 82.568 131.2 81.968 131.2C81.328 131.2 80.748 131.087 80.228 130.86C79.7213 130.633 79.3213 130.287 79.028 129.82C78.7346 129.34 78.588 128.74 78.588 128.02C78.588 126.953 79.008 126.133 79.848 125.56C80.688 124.973 81.9813 124.653 83.728 124.6L85.548 124.54V123.9C85.548 123.007 85.3546 122.387 84.968 122.04C84.5813 121.693 84.0346 121.52 83.328 121.52C82.768 121.52 82.2346 121.607 81.728 121.78C81.2213 121.94 80.748 122.127 80.308 122.34L79.768 121.02C80.2346 120.767 80.788 120.553 81.428 120.38C82.068 120.193 82.7346 120.1 83.428 120.1ZM83.948 125.82C82.6146 125.873 81.688 126.087 81.168 126.46C80.6613 126.833 80.408 127.36 80.408 128.04C80.408 128.64 80.588 129.08 80.948 129.36C81.3213 129.64 81.7946 129.78 82.368 129.78C83.2746 129.78 84.028 129.533 84.628 129.04C85.228 128.533 85.528 127.76 85.528 126.72V125.76L83.948 125.82Z" fill="#939597"/>
</g>
<defs>
<clipPath id="clip0_228_112">
<rect width="153" height="160" rx="14" fill="white"/>
</clipPath>
</defs>
</svg>
