<svg width="153" height="160" viewBox="0 0 153 160" fill="none" xmlns="http://www.w3.org/2000/svg">
<g clip-path="url(#clip0_228_118)">
<rect width="153" height="160" rx="14" fill="white"/>
<rect width="153" height="160.188" rx="14" fill="white"/>
<rect x="1" y="1" width="151" height="158.188" rx="13" stroke="#80A5B3" stroke-opacity="0.701961" stroke-width="2"/>
<path d="M34.4176 27.9091V57H29.1477V33.0369H28.9773L22.1733 37.3835V32.554L29.4034 27.9091H34.4176ZM51.9176 57.3977C50.0237 57.3977 48.3286 57.0426 46.8324 56.3324C45.3362 55.6127 44.1477 54.6278 43.267 53.3778C42.3958 52.1278 41.9318 50.6979 41.875 49.0881H46.9886C47.0833 50.2812 47.5994 51.2566 48.5369 52.0142C49.4744 52.7623 50.6013 53.1364 51.9176 53.1364C52.9498 53.1364 53.8684 52.8996 54.6733 52.4261C55.4782 51.9527 56.1127 51.2945 56.5767 50.4517C57.0407 49.6089 57.268 48.6477 57.2585 47.5682C57.268 46.4697 57.036 45.4943 56.5625 44.642C56.089 43.7898 55.4403 43.1222 54.6165 42.6392C53.7926 42.1468 52.8456 41.9006 51.7756 41.9006C50.9044 41.8911 50.0473 42.0521 49.2045 42.3835C48.3617 42.715 47.6941 43.1506 47.2017 43.6903L42.4432 42.9091L43.9631 27.9091H60.8381V32.3125H48.3239L47.4858 40.0256H47.6562C48.196 39.3911 48.9583 38.8655 49.9432 38.4489C50.928 38.0227 52.0076 37.8097 53.1818 37.8097C54.9432 37.8097 56.5152 38.2263 57.8977 39.0597C59.2803 39.8835 60.3693 41.0199 61.1648 42.4688C61.9602 43.9176 62.358 45.5748 62.358 47.4403C62.358 49.3627 61.9129 51.0767 61.0227 52.5824C60.142 54.0786 58.9157 55.2576 57.3438 56.1193C55.7812 56.9716 53.9725 57.3977 51.9176 57.3977ZM77.8693 57.554C75.5303 57.554 73.5227 56.9621 71.8466 55.7784C70.1799 54.5852 68.8968 52.8665 67.9972 50.6222C67.107 48.3684 66.6619 45.6553 66.6619 42.483C66.6714 39.3106 67.1212 36.6117 68.0114 34.3864C68.911 32.1515 70.1941 30.447 71.8608 29.2727C73.5369 28.0985 75.5398 27.5114 77.8693 27.5114C80.1989 27.5114 82.2017 28.0985 83.8778 29.2727C85.554 30.447 86.8371 32.1515 87.7273 34.3864C88.6269 36.6212 89.0767 39.3201 89.0767 42.483C89.0767 45.6648 88.6269 48.3826 87.7273 50.6364C86.8371 52.8807 85.554 54.5947 83.8778 55.7784C82.2112 56.9621 80.2083 57.554 77.8693 57.554ZM77.8693 53.108C79.6875 53.108 81.1222 52.2131 82.1733 50.4233C83.2339 48.6241 83.7642 45.9773 83.7642 42.483C83.7642 40.1723 83.5227 38.2311 83.0398 36.6591C82.5568 35.0871 81.875 33.9034 80.9943 33.108C80.1136 32.303 79.072 31.9006 77.8693 31.9006C76.0606 31.9006 74.6307 32.8002 73.5795 34.5994C72.5284 36.3892 71.9981 39.017 71.9886 42.483C71.9792 44.803 72.2112 46.7538 72.6847 48.3352C73.1676 49.9167 73.8494 51.1098 74.7301 51.9148C75.6108 52.7102 76.6572 53.108 77.8693 53.108ZM102.433 52.3409V32.6818H106.893V52.3409H102.433ZM94.8331 44.7415V40.2812H114.492V44.7415H94.8331Z" fill="#506A7B" fill-opacity="0.8"/>
<path d="M29.1 84.76H25.6V94H23.86V84.76H20.4V83.28H29.1V84.76ZM40.3364 88.62C40.3364 89.5133 40.2164 90.3067 39.9764 91C39.7497 91.68 39.4164 92.26 38.9764 92.74C38.5497 93.22 38.0231 93.5867 37.3964 93.84C36.7831 94.08 36.0964 94.2 35.3364 94.2C34.6297 94.2 33.9764 94.08 33.3764 93.84C32.7764 93.5867 32.2564 93.22 31.8164 92.74C31.3764 92.26 31.0297 91.68 30.7764 91C30.5364 90.3067 30.4164 89.5133 30.4164 88.62C30.4164 87.4333 30.6164 86.4333 31.0164 85.62C31.4164 84.7933 31.9897 84.1667 32.7364 83.74C33.4831 83.3 34.3697 83.08 35.3964 83.08C36.3697 83.08 37.2231 83.3 37.9564 83.74C38.7031 84.1667 39.2831 84.7933 39.6964 85.62C40.1231 86.4333 40.3364 87.4333 40.3364 88.62ZM32.2364 88.62C32.2364 89.46 32.3431 90.1933 32.5564 90.82C32.7831 91.4333 33.1297 91.9067 33.5964 92.24C34.0631 92.5733 34.6564 92.74 35.3764 92.74C36.0964 92.74 36.6897 92.5733 37.1564 92.24C37.6231 91.9067 37.9631 91.4333 38.1764 90.82C38.4031 90.1933 38.5164 89.46 38.5164 88.62C38.5164 87.7667 38.4031 87.04 38.1764 86.44C37.9497 85.84 37.6031 85.38 37.1364 85.06C36.6831 84.7267 36.0897 84.56 35.3564 84.56C34.2631 84.56 33.4697 84.92 32.9764 85.64C32.4831 86.36 32.2364 87.3533 32.2364 88.62ZM44.4705 87.18C44.4705 87.8067 44.6438 88.2733 44.9905 88.58C45.3505 88.8733 45.8638 89.02 46.5305 89.02C47.1971 89.02 47.8038 88.92 48.3505 88.72C48.8971 88.5067 49.4571 88.2267 50.0305 87.88V83.28H51.7905V94H50.0305V89.22C49.4305 89.6067 48.8371 89.9133 48.2505 90.14C47.6771 90.3533 46.9838 90.46 46.1705 90.46C45.0771 90.46 44.2238 90.1733 43.6105 89.6C43.0105 89.0267 42.7105 88.26 42.7105 87.3V83.28H44.4705V87.18ZM59.3361 83.08C60.2561 83.08 61.0428 83.28 61.6961 83.68C62.3628 84.08 62.8694 84.6467 63.2161 85.38C63.5761 86.1 63.7561 86.9467 63.7561 87.92V88.98H56.4161C56.4428 90.1933 56.7494 91.12 57.3361 91.76C57.9361 92.3867 58.7694 92.7 59.8361 92.7C60.5161 92.7 61.1161 92.64 61.6361 92.52C62.1694 92.3867 62.7161 92.2 63.2761 91.96V93.5C62.7294 93.74 62.1894 93.9133 61.6561 94.02C61.1228 94.14 60.4894 94.2 59.7561 94.2C58.7428 94.2 57.8428 93.9933 57.0561 93.58C56.2828 93.1667 55.6761 92.5533 55.2361 91.74C54.8094 90.9133 54.5961 89.9067 54.5961 88.72C54.5961 87.5467 54.7894 86.54 55.1761 85.7C55.5761 84.86 56.1294 84.2133 56.8361 83.76C57.5561 83.3067 58.3894 83.08 59.3361 83.08ZM59.3161 84.52C58.4761 84.52 57.8094 84.7933 57.3161 85.34C56.8361 85.8733 56.5494 86.62 56.4561 87.58H61.9161C61.9161 86.9667 61.8228 86.4333 61.6361 85.98C61.4494 85.5267 61.1628 85.1733 60.7761 84.92C60.4028 84.6533 59.9161 84.52 59.3161 84.52ZM72.8252 83.28H74.7452L70.1652 88.44L75.1252 94H73.0852L68.2452 88.56V94H66.4852V83.28H68.2452V88.48L72.8252 83.28ZM91.4631 83.28V94H89.7031V84.78H84.1631V94H82.4031V83.28H91.4631ZM104.204 88.62C104.204 89.5133 104.084 90.3067 103.844 91C103.617 91.68 103.284 92.26 102.844 92.74C102.417 93.22 101.89 93.5867 101.264 93.84C100.65 94.08 99.9636 94.2 99.2036 94.2C98.4969 94.2 97.8436 94.08 97.2436 93.84C96.6436 93.5867 96.1236 93.22 95.6836 92.74C95.2436 92.26 94.8969 91.68 94.6436 91C94.4036 90.3067 94.2836 89.5133 94.2836 88.62C94.2836 87.4333 94.4836 86.4333 94.8836 85.62C95.2836 84.7933 95.8569 84.1667 96.6036 83.74C97.3503 83.3 98.2369 83.08 99.2636 83.08C100.237 83.08 101.09 83.3 101.824 83.74C102.57 84.1667 103.15 84.7933 103.564 85.62C103.99 86.4333 104.204 87.4333 104.204 88.62ZM96.1036 88.62C96.1036 89.46 96.2103 90.1933 96.4236 90.82C96.6503 91.4333 96.9969 91.9067 97.4636 92.24C97.9303 92.5733 98.5236 92.74 99.2436 92.74C99.9636 92.74 100.557 92.5733 101.024 92.24C101.49 91.9067 101.83 91.4333 102.044 90.82C102.27 90.1933 102.384 89.46 102.384 88.62C102.384 87.7667 102.27 87.04 102.044 86.44C101.817 85.84 101.47 85.38 101.004 85.06C100.55 84.7267 99.9569 84.56 99.2236 84.56C98.1303 84.56 97.3369 84.92 96.8436 85.64C96.3503 86.36 96.1036 87.3533 96.1036 88.62ZM30.32 114.98C30.32 115.647 30.12 116.167 29.72 116.54C29.32 116.913 28.8067 117.167 28.18 117.3V117.38C28.8467 117.473 29.4267 117.713 29.92 118.1C30.4133 118.473 30.66 119.06 30.66 119.86C30.66 120.313 30.5733 120.733 30.4 121.12C30.24 121.507 29.9867 121.84 29.64 122.12C29.2933 122.4 28.8467 122.62 28.3 122.78C27.7533 122.927 27.0933 123 26.32 123H21.7V112.28H26.3C27.06 112.28 27.74 112.367 28.34 112.54C28.9533 112.7 29.4333 112.98 29.78 113.38C30.14 113.767 30.32 114.3 30.32 114.98ZM28.84 119.86C28.84 119.247 28.6067 118.807 28.14 118.54C27.6733 118.273 26.9867 118.14 26.08 118.14H23.46V121.58H26.12C27 121.58 27.6733 121.453 28.14 121.2C28.6067 120.933 28.84 120.487 28.84 119.86ZM28.54 115.2C28.54 114.693 28.3533 114.327 27.98 114.1C27.62 113.86 27.0267 113.74 26.2 113.74H23.46V116.68H25.88C26.7467 116.68 27.4067 116.56 27.86 116.32C28.3133 116.08 28.54 115.707 28.54 115.2ZM37.5234 123.2C36.5768 123.2 35.7301 123.007 34.9834 122.62C34.2501 122.233 33.6701 121.633 33.2434 120.82C32.8301 120.007 32.6234 118.967 32.6234 117.7C32.6234 116.38 32.8434 115.307 33.2834 114.48C33.7234 113.653 34.3168 113.047 35.0634 112.66C35.8234 112.273 36.6834 112.08 37.6434 112.08C38.1901 112.08 38.7168 112.14 39.2234 112.26C39.7301 112.367 40.1434 112.5 40.4634 112.66L39.9234 114.12C39.6034 114 39.2301 113.887 38.8034 113.78C38.3768 113.673 37.9768 113.62 37.6034 113.62C36.8834 113.62 36.2901 113.773 35.8234 114.08C35.3568 114.387 35.0101 114.84 34.7834 115.44C34.5568 116.04 34.4434 116.787 34.4434 117.68C34.4434 118.533 34.5568 119.26 34.7834 119.86C35.0101 120.46 35.3501 120.913 35.8034 121.22C36.2568 121.527 36.8234 121.68 37.5034 121.68C38.0901 121.68 38.6034 121.62 39.0434 121.5C39.4968 121.38 39.9101 121.233 40.2834 121.06V122.62C39.9234 122.807 39.5234 122.947 39.0834 123.04C38.6568 123.147 38.1368 123.2 37.5234 123.2ZM46.9728 112.08C47.8928 112.08 48.6795 112.28 49.3328 112.68C49.9995 113.08 50.5061 113.647 50.8528 114.38C51.2128 115.1 51.3928 115.947 51.3928 116.92V117.98H44.0528C44.0795 119.193 44.3861 120.12 44.9728 120.76C45.5728 121.387 46.4061 121.7 47.4728 121.7C48.1528 121.7 48.7528 121.64 49.2728 121.52C49.8061 121.387 50.3528 121.2 50.9128 120.96V122.5C50.3661 122.74 49.8261 122.913 49.2928 123.02C48.7595 123.14 48.1261 123.2 47.3928 123.2C46.3795 123.2 45.4795 122.993 44.6928 122.58C43.9195 122.167 43.3128 121.553 42.8728 120.74C42.4461 119.913 42.2328 118.907 42.2328 117.72C42.2328 116.547 42.4261 115.54 42.8128 114.7C43.2128 113.86 43.7661 113.213 44.4728 112.76C45.1928 112.307 46.0261 112.08 46.9728 112.08ZM46.9528 113.52C46.1128 113.52 45.4461 113.793 44.9528 114.34C44.4728 114.873 44.1861 115.62 44.0928 116.58H49.5528C49.5528 115.967 49.4595 115.433 49.2728 114.98C49.0861 114.527 48.7995 114.173 48.4128 113.92C48.0395 113.653 47.5528 113.52 46.9528 113.52ZM62.8019 107.84C62.7485 108.507 62.5819 109.067 62.3019 109.52C62.0352 109.973 61.6352 110.313 61.1019 110.54C60.5685 110.767 59.8752 110.88 59.0219 110.88C58.1552 110.88 57.4552 110.767 56.9219 110.54C56.4019 110.313 56.0219 109.98 55.7819 109.54C55.5419 109.087 55.3952 108.52 55.3419 107.84H56.9819C57.0485 108.56 57.2352 109.047 57.5419 109.3C57.8619 109.54 58.3685 109.66 59.0619 109.66C59.6752 109.66 60.1552 109.533 60.5019 109.28C60.8619 109.013 61.0752 108.533 61.1419 107.84H62.8019ZM55.7819 118.82C55.7819 118.94 55.7752 119.113 55.7619 119.34C55.7619 119.553 55.7552 119.787 55.7419 120.04C55.7285 120.28 55.7152 120.513 55.7019 120.74C55.6885 120.953 55.6752 121.127 55.6619 121.26L61.4019 112.28H63.5619V123H61.9219V116.68C61.9219 116.467 61.9219 116.187 61.9219 115.84C61.9352 115.493 61.9485 115.153 61.9619 114.82C61.9752 114.473 61.9885 114.213 62.0019 114.04L56.3019 123H54.1219V112.28H55.7819V118.82ZM76.3255 108.72C78.1921 108.72 79.5521 109.087 80.4055 109.82C81.2588 110.553 81.6855 111.587 81.6855 112.92C81.6855 113.507 81.5855 114.073 81.3855 114.62C81.1988 115.153 80.8855 115.633 80.4455 116.06C80.0055 116.487 79.4188 116.827 78.6855 117.08C77.9521 117.32 77.0521 117.44 75.9855 117.44H74.3455V123H72.5455V108.72H76.3255ZM76.1655 110.26H74.3455V115.9H75.7855C76.6921 115.9 77.4455 115.807 78.0455 115.62C78.6455 115.42 79.0921 115.107 79.3855 114.68C79.6788 114.253 79.8255 113.693 79.8255 113C79.8255 112.08 79.5321 111.393 78.9455 110.94C78.3588 110.487 77.4321 110.26 76.1655 110.26ZM93.7348 117.62C93.7348 118.513 93.6148 119.307 93.3748 120C93.1482 120.68 92.8148 121.26 92.3748 121.74C91.9482 122.22 91.4215 122.587 90.7948 122.84C90.1815 123.08 89.4948 123.2 88.7348 123.2C88.0282 123.2 87.3748 123.08 86.7748 122.84C86.1748 122.587 85.6548 122.22 85.2148 121.74C84.7748 121.26 84.4282 120.68 84.1748 120C83.9348 119.307 83.8148 118.513 83.8148 117.62C83.8148 116.433 84.0148 115.433 84.4148 114.62C84.8148 113.793 85.3882 113.167 86.1348 112.74C86.8815 112.3 87.7682 112.08 88.7948 112.08C89.7682 112.08 90.6215 112.3 91.3548 112.74C92.1015 113.167 92.6815 113.793 93.0948 114.62C93.5215 115.433 93.7348 116.433 93.7348 117.62ZM85.6348 117.62C85.6348 118.46 85.7415 119.193 85.9548 119.82C86.1815 120.433 86.5282 120.907 86.9948 121.24C87.4615 121.573 88.0548 121.74 88.7748 121.74C89.4948 121.74 90.0882 121.573 90.5548 121.24C91.0215 120.907 91.3615 120.433 91.5748 119.82C91.8015 119.193 91.9148 118.46 91.9148 117.62C91.9148 116.767 91.8015 116.04 91.5748 115.44C91.3482 114.84 91.0015 114.38 90.5348 114.06C90.0815 113.727 89.4882 113.56 88.7548 113.56C87.6615 113.56 86.8682 113.92 86.3748 114.64C85.8815 115.36 85.6348 116.353 85.6348 117.62ZM100.824 123.2C99.8776 123.2 99.0309 123.007 98.2842 122.62C97.5509 122.233 96.9709 121.633 96.5442 120.82C96.1309 120.007 95.9242 118.967 95.9242 117.7C95.9242 116.38 96.1442 115.307 96.5842 114.48C97.0242 113.653 97.6176 113.047 98.3642 112.66C99.1242 112.273 99.9842 112.08 100.944 112.08C101.491 112.08 102.018 112.14 102.524 112.26C103.031 112.367 103.444 112.5 103.764 112.66L103.224 114.12C102.904 114 102.531 113.887 102.104 113.78C101.678 113.673 101.278 113.62 100.904 113.62C100.184 113.62 99.5909 113.773 99.1242 114.08C98.6576 114.387 98.3109 114.84 98.0842 115.44C97.8576 116.04 97.7442 116.787 97.7442 117.68C97.7442 118.533 97.8576 119.26 98.0842 119.86C98.3109 120.46 98.6509 120.913 99.1042 121.22C99.5576 121.527 100.124 121.68 100.804 121.68C101.391 121.68 101.904 121.62 102.344 121.5C102.798 121.38 103.211 121.233 103.584 121.06V122.62C103.224 122.807 102.824 122.947 102.384 123.04C101.958 123.147 101.438 123.2 100.824 123.2ZM110.434 123.2C109.487 123.2 108.64 123.007 107.894 122.62C107.16 122.233 106.58 121.633 106.154 120.82C105.74 120.007 105.534 118.967 105.534 117.7C105.534 116.38 105.754 115.307 106.194 114.48C106.634 113.653 107.227 113.047 107.974 112.66C108.734 112.273 109.594 112.08 110.554 112.08C111.1 112.08 111.627 112.14 112.134 112.26C112.64 112.367 113.054 112.5 113.374 112.66L112.834 114.12C112.514 114 112.14 113.887 111.714 113.78C111.287 113.673 110.887 113.62 110.514 113.62C109.794 113.62 109.2 113.773 108.734 114.08C108.267 114.387 107.92 114.84 107.694 115.44C107.467 116.04 107.354 116.787 107.354 117.68C107.354 118.533 107.467 119.26 107.694 119.86C107.92 120.46 108.26 120.913 108.714 121.22C109.167 121.527 109.734 121.68 110.414 121.68C111 121.68 111.514 121.62 111.954 121.5C112.407 121.38 112.82 121.233 113.194 121.06V122.62C112.834 122.807 112.434 122.947 111.994 123.04C111.567 123.147 111.047 123.2 110.434 123.2ZM117.403 118.82C117.403 118.94 117.396 119.113 117.383 119.34C117.383 119.553 117.376 119.787 117.363 120.04C117.35 120.28 117.336 120.513 117.323 120.74C117.31 120.953 117.296 121.127 117.283 121.26L123.023 112.28H125.183V123H123.543V116.68C123.543 116.467 123.543 116.187 123.543 115.84C123.556 115.493 123.57 115.153 123.583 114.82C123.596 114.473 123.61 114.213 123.623 114.04L117.923 123H115.743V112.28H117.403V118.82ZM130.255 118.82C130.255 118.94 130.248 119.113 130.235 119.34C130.235 119.553 130.228 119.787 130.215 120.04C130.201 120.28 130.188 120.513 130.175 120.74C130.161 120.953 130.148 121.127 130.135 121.26L135.875 112.28H138.035V123H136.395V116.68C136.395 116.467 136.395 116.187 136.395 115.84C136.408 115.493 136.421 115.153 136.435 114.82C136.448 114.473 136.461 114.213 136.475 114.04L130.775 123H128.595V112.28H130.255V118.82Z" fill="#939597"/>
</g>
<defs>
<clipPath id="clip0_228_118">
<rect width="153" height="160" rx="14" fill="white"/>
</clipPath>
</defs>
</svg>
