<svg width="153" height="160" viewBox="0 0 153 160" fill="none" xmlns="http://www.w3.org/2000/svg">
<g clip-path="url(#clip0_228_113)">
<rect width="153" height="160" rx="14" fill="white"/>
<rect width="153" height="160.188" rx="14" fill="white"/>
<rect x="1" y="1" width="151" height="158.188" rx="13" stroke="#80A5B3" stroke-opacity="0.701961" stroke-width="2"/>
<path d="M29.8 91.08C31.12 91.08 32.18 91.54 32.98 92.46C33.7933 93.38 34.2 94.7667 34.2 96.62C34.2 97.8333 34.0133 98.86 33.64 99.7C33.28 100.527 32.7667 101.153 32.1 101.58C31.4467 101.993 30.6733 102.2 29.78 102.2C29.2333 102.2 28.7467 102.127 28.32 101.98C27.8933 101.833 27.5267 101.647 27.22 101.42C26.9267 101.18 26.6733 100.92 26.46 100.64H26.34C26.3667 100.867 26.3933 101.153 26.42 101.5C26.4467 101.847 26.46 102.147 26.46 102.4V106.8H24.7V91.28H26.14L26.38 92.74H26.46C26.6733 92.4333 26.9267 92.1533 27.22 91.9C27.5267 91.6467 27.8867 91.4467 28.3 91.3C28.7267 91.1533 29.2267 91.08 29.8 91.08ZM29.48 92.56C28.76 92.56 28.18 92.7 27.74 92.98C27.3 93.2467 26.98 93.6533 26.78 94.2C26.58 94.7467 26.4733 95.44 26.46 96.28V96.62C26.46 97.5 26.5533 98.2467 26.74 98.86C26.9267 99.4733 27.24 99.94 27.68 100.26C28.1333 100.58 28.7467 100.74 29.52 100.74C30.1733 100.74 30.7067 100.56 31.12 100.2C31.5467 99.84 31.86 99.3533 32.06 98.74C32.2733 98.1133 32.38 97.4 32.38 96.6C32.38 95.3733 32.14 94.3933 31.66 93.66C31.1933 92.9267 30.4667 92.56 29.48 92.56ZM41.0647 91.1C42.3714 91.1 43.338 91.3867 43.9647 91.96C44.5914 92.5333 44.9047 93.4467 44.9047 94.7V102H43.6247L43.2847 100.48H43.2047C42.898 100.867 42.578 101.193 42.2447 101.46C41.9247 101.713 41.5514 101.9 41.1247 102.02C40.7114 102.14 40.2047 102.2 39.6047 102.2C38.9647 102.2 38.3847 102.087 37.8647 101.86C37.358 101.633 36.958 101.287 36.6647 100.82C36.3714 100.34 36.2247 99.74 36.2247 99.02C36.2247 97.9533 36.6447 97.1333 37.4847 96.56C38.3247 95.9733 39.618 95.6533 41.3647 95.6L43.1847 95.54V94.9C43.1847 94.0067 42.9914 93.3867 42.6047 93.04C42.218 92.6933 41.6714 92.52 40.9647 92.52C40.4047 92.52 39.8714 92.6067 39.3647 92.78C38.858 92.94 38.3847 93.1267 37.9447 93.34L37.4047 92.02C37.8714 91.7667 38.4247 91.5533 39.0647 91.38C39.7047 91.1933 40.3714 91.1 41.0647 91.1ZM41.5847 96.82C40.2514 96.8733 39.3247 97.0867 38.8047 97.46C38.298 97.8333 38.0447 98.36 38.0447 99.04C38.0447 99.64 38.2247 100.08 38.5847 100.36C38.958 100.64 39.4314 100.78 40.0047 100.78C40.9114 100.78 41.6647 100.533 42.2647 100.04C42.8647 99.5333 43.1647 98.76 43.1647 97.72V96.76L41.5847 96.82ZM51.0356 91.08C51.849 91.08 52.5556 91.1933 53.1556 91.42C53.7556 91.6333 54.2223 91.9533 54.5556 92.38C54.889 92.7933 55.0556 93.3 55.0556 93.9C55.0556 94.5533 54.8756 95.0733 54.5156 95.46C54.1556 95.8333 53.6623 96.1067 53.0356 96.28V96.36C53.4623 96.48 53.8556 96.6467 54.2156 96.86C54.5756 97.0733 54.8623 97.3533 55.0756 97.7C55.3023 98.0467 55.4156 98.4933 55.4156 99.04C55.4156 99.6267 55.249 100.16 54.9156 100.64C54.5956 101.12 54.0956 101.5 53.4156 101.78C52.749 102.06 51.889 102.2 50.8356 102.2C50.329 102.2 49.8423 102.173 49.3756 102.12C48.9223 102.067 48.509 101.987 48.1356 101.88C47.7756 101.773 47.4556 101.647 47.1756 101.5V99.92C47.629 100.133 48.1623 100.327 48.7756 100.5C49.4023 100.673 50.0823 100.76 50.8156 100.76C51.349 100.76 51.829 100.7 52.2556 100.58C52.6956 100.46 53.0423 100.273 53.2956 100.02C53.549 99.7533 53.6756 99.3933 53.6756 98.94C53.6756 98.5267 53.5623 98.1933 53.3356 97.94C53.109 97.6733 52.769 97.4733 52.3156 97.34C51.8756 97.2067 51.309 97.14 50.6156 97.14H49.1756V95.7H50.3356C51.2556 95.7 51.989 95.58 52.5356 95.34C53.0956 95.0867 53.3756 94.66 53.3756 94.06C53.3756 93.5533 53.1623 93.1733 52.7356 92.92C52.3223 92.6667 51.7223 92.54 50.9356 92.54C50.349 92.54 49.829 92.6 49.3756 92.72C48.9356 92.8267 48.449 92.9933 47.9156 93.22L47.2956 91.82C47.869 91.5667 48.469 91.38 49.0956 91.26C49.7223 91.14 50.369 91.08 51.0356 91.08ZM66.1803 102H64.4003V92.74H61.2403C61.107 94.4333 60.9403 95.88 60.7403 97.08C60.5403 98.2667 60.287 99.2333 59.9803 99.98C59.6736 100.727 59.307 101.273 58.8803 101.62C58.4536 101.967 57.9536 102.14 57.3803 102.14C57.207 102.14 57.0336 102.127 56.8603 102.1C56.7003 102.087 56.567 102.053 56.4603 102V100.68C56.5403 100.707 56.627 100.727 56.7203 100.74C56.8136 100.753 56.907 100.76 57.0003 100.76C57.2936 100.76 57.5603 100.64 57.8003 100.4C58.0403 100.16 58.2536 99.7933 58.4403 99.3C58.6403 98.8067 58.8203 98.1867 58.9803 97.44C59.1403 96.68 59.2803 95.7867 59.4003 94.76C59.5203 93.7333 59.627 92.5733 59.7203 91.28H66.1803V102ZM71.2428 97.82C71.2428 97.94 71.2361 98.1133 71.2228 98.34C71.2228 98.5533 71.2161 98.7867 71.2028 99.04C71.1895 99.28 71.1761 99.5133 71.1628 99.74C71.1495 99.9533 71.1361 100.127 71.1228 100.26L76.8628 91.28H79.0228V102H77.3828V95.68C77.3828 95.4667 77.3828 95.1867 77.3828 94.84C77.3961 94.4933 77.4095 94.1533 77.4228 93.82C77.4361 93.4733 77.4495 93.2133 77.4628 93.04L71.7628 102H69.5828V91.28H71.2428V97.82ZM83.9744 95.18C83.9744 95.8067 84.1477 96.2733 84.4944 96.58C84.8544 96.8733 85.3677 97.02 86.0344 97.02C86.701 97.02 87.3077 96.92 87.8544 96.72C88.401 96.5067 88.961 96.2267 89.5344 95.88V91.28H91.2944V102H89.5344V97.22C88.9344 97.6067 88.341 97.9133 87.7544 98.14C87.181 98.3533 86.4877 98.46 85.6744 98.46C84.581 98.46 83.7277 98.1733 83.1144 97.6C82.5144 97.0267 82.2144 96.26 82.2144 95.3V91.28H83.9744V95.18ZM96.46 91.28V95.74H102.28V91.28H104.04V102H102.28V97.22H96.46V102H94.7V91.28H96.46ZM107.434 102V91.28H109.194V95.68H111.974C112.908 95.68 113.674 95.7933 114.274 96.02C114.874 96.2467 115.321 96.5867 115.614 97.04C115.908 97.48 116.054 98.04 116.054 98.72C116.054 99.3867 115.908 99.9667 115.614 100.46C115.334 100.953 114.888 101.333 114.274 101.6C113.674 101.867 112.881 102 111.894 102H107.434ZM111.734 100.58C112.494 100.58 113.114 100.453 113.594 100.2C114.074 99.9333 114.314 99.4733 114.314 98.82C114.314 98.1667 114.094 97.7267 113.654 97.5C113.214 97.26 112.581 97.14 111.754 97.14H109.194V100.58H111.734ZM117.834 102V91.28H119.594V102H117.834ZM125.541 96.52L121.841 91.28H123.841L126.601 95.32L129.341 91.28H131.321L127.621 96.52L131.521 102H129.521L126.601 97.72L123.641 102H121.661L125.541 96.52ZM32.1 121.76H28.6V131H26.86V121.76H23.4V120.28H32.1V121.76ZM43.3364 125.62C43.3364 126.513 43.2164 127.307 42.9764 128C42.7497 128.68 42.4164 129.26 41.9764 129.74C41.5497 130.22 41.0231 130.587 40.3964 130.84C39.7831 131.08 39.0964 131.2 38.3364 131.2C37.6297 131.2 36.9764 131.08 36.3764 130.84C35.7764 130.587 35.2564 130.22 34.8164 129.74C34.3764 129.26 34.0297 128.68 33.7764 128C33.5364 127.307 33.4164 126.513 33.4164 125.62C33.4164 124.433 33.6164 123.433 34.0164 122.62C34.4164 121.793 34.9897 121.167 35.7364 120.74C36.4831 120.3 37.3697 120.08 38.3964 120.08C39.3697 120.08 40.2231 120.3 40.9564 120.74C41.7031 121.167 42.2831 121.793 42.6964 122.62C43.1231 123.433 43.3364 124.433 43.3364 125.62ZM35.2364 125.62C35.2364 126.46 35.3431 127.193 35.5564 127.82C35.7831 128.433 36.1297 128.907 36.5964 129.24C37.0631 129.573 37.6564 129.74 38.3764 129.74C39.0964 129.74 39.6897 129.573 40.1564 129.24C40.6231 128.907 40.9631 128.433 41.1764 127.82C41.4031 127.193 41.5164 126.46 41.5164 125.62C41.5164 124.767 41.4031 124.04 41.1764 123.44C40.9497 122.84 40.6031 122.38 40.1364 122.06C39.6831 121.727 39.0897 121.56 38.3564 121.56C37.2631 121.56 36.4697 121.92 35.9764 122.64C35.4831 123.36 35.2364 124.353 35.2364 125.62ZM54.7458 122.98C54.7458 123.647 54.5458 124.167 54.1458 124.54C53.7458 124.913 53.2324 125.167 52.6058 125.3V125.38C53.2724 125.473 53.8524 125.713 54.3458 126.1C54.8391 126.473 55.0858 127.06 55.0858 127.86C55.0858 128.313 54.9991 128.733 54.8258 129.12C54.6658 129.507 54.4124 129.84 54.0658 130.12C53.7191 130.4 53.2724 130.62 52.7258 130.78C52.1791 130.927 51.5191 131 50.7458 131H46.1258V120.28H50.7258C51.4858 120.28 52.1658 120.367 52.7658 120.54C53.3791 120.7 53.8591 120.98 54.2058 121.38C54.5658 121.767 54.7458 122.3 54.7458 122.98ZM53.2658 127.86C53.2658 127.247 53.0324 126.807 52.5658 126.54C52.0991 126.273 51.4124 126.14 50.5058 126.14H47.8858V129.58H50.5458C51.4258 129.58 52.0991 129.453 52.5658 129.2C53.0324 128.933 53.2658 128.487 53.2658 127.86ZM52.9658 123.2C52.9658 122.693 52.7791 122.327 52.4058 122.1C52.0458 121.86 51.4524 121.74 50.6258 121.74H47.8858V124.68H50.3058C51.1724 124.68 51.8324 124.56 52.2858 124.32C52.7391 124.08 52.9658 123.707 52.9658 123.2ZM61.7092 120.1C63.0159 120.1 63.9826 120.387 64.6092 120.96C65.2359 121.533 65.5492 122.447 65.5492 123.7V131H64.2692L63.9292 129.48H63.8492C63.5426 129.867 63.2226 130.193 62.8892 130.46C62.5692 130.713 62.1959 130.9 61.7692 131.02C61.3559 131.14 60.8492 131.2 60.2492 131.2C59.6092 131.2 59.0292 131.087 58.5092 130.86C58.0026 130.633 57.6026 130.287 57.3092 129.82C57.0159 129.34 56.8692 128.74 56.8692 128.02C56.8692 126.953 57.2892 126.133 58.1292 125.56C58.9692 124.973 60.2626 124.653 62.0092 124.6L63.8292 124.54V123.9C63.8292 123.007 63.6359 122.387 63.2492 122.04C62.8626 121.693 62.3159 121.52 61.6092 121.52C61.0492 121.52 60.5159 121.607 60.0092 121.78C59.5026 121.94 59.0292 122.127 58.5892 122.34L58.0492 121.02C58.5159 120.767 59.0692 120.553 59.7092 120.38C60.3492 120.193 61.0159 120.1 61.7092 120.1ZM62.2292 125.82C60.8959 125.873 59.9692 126.087 59.4492 126.46C58.9426 126.833 58.6892 127.36 58.6892 128.04C58.6892 128.64 58.8692 129.08 59.2292 129.36C59.6026 129.64 60.0759 129.78 60.6492 129.78C61.5559 129.78 62.3092 129.533 62.9092 129.04C63.5092 128.533 63.8092 127.76 63.8092 126.72V125.76L62.2292 125.82ZM73.9602 120.08C75.2802 120.08 76.3402 120.54 77.1402 121.46C77.9535 122.38 78.3602 123.767 78.3602 125.62C78.3602 126.833 78.1735 127.86 77.8002 128.7C77.4402 129.527 76.9268 130.153 76.2602 130.58C75.6068 130.993 74.8335 131.2 73.9402 131.2C73.3935 131.2 72.9068 131.127 72.4802 130.98C72.0535 130.833 71.6868 130.647 71.3802 130.42C71.0868 130.18 70.8335 129.92 70.6202 129.64H70.5002C70.5268 129.867 70.5535 130.153 70.5802 130.5C70.6068 130.847 70.6202 131.147 70.6202 131.4V135.8H68.8602V120.28H70.3002L70.5402 121.74H70.6202C70.8335 121.433 71.0868 121.153 71.3802 120.9C71.6868 120.647 72.0468 120.447 72.4602 120.3C72.8868 120.153 73.3868 120.08 73.9602 120.08ZM73.6402 121.56C72.9202 121.56 72.3402 121.7 71.9002 121.98C71.4602 122.247 71.1402 122.653 70.9402 123.2C70.7402 123.747 70.6335 124.44 70.6202 125.28V125.62C70.6202 126.5 70.7135 127.247 70.9002 127.86C71.0868 128.473 71.4002 128.94 71.8402 129.26C72.2935 129.58 72.9068 129.74 73.6802 129.74C74.3335 129.74 74.8668 129.56 75.2802 129.2C75.7068 128.84 76.0202 128.353 76.2202 127.74C76.4335 127.113 76.5402 126.4 76.5402 125.6C76.5402 124.373 76.3002 123.393 75.8202 122.66C75.3535 121.927 74.6268 121.56 73.6402 121.56ZM90.4848 125.62C90.4848 126.513 90.3648 127.307 90.1248 128C89.8982 128.68 89.5648 129.26 89.1248 129.74C88.6982 130.22 88.1715 130.587 87.5448 130.84C86.9315 131.08 86.2448 131.2 85.4848 131.2C84.7782 131.2 84.1248 131.08 83.5248 130.84C82.9248 130.587 82.4048 130.22 81.9648 129.74C81.5248 129.26 81.1782 128.68 80.9248 128C80.6848 127.307 80.5648 126.513 80.5648 125.62C80.5648 124.433 80.7648 123.433 81.1648 122.62C81.5648 121.793 82.1382 121.167 82.8848 120.74C83.6315 120.3 84.5182 120.08 85.5448 120.08C86.5182 120.08 87.3715 120.3 88.1048 120.74C88.8515 121.167 89.4315 121.793 89.8448 122.62C90.2715 123.433 90.4848 124.433 90.4848 125.62ZM82.3848 125.62C82.3848 126.46 82.4915 127.193 82.7048 127.82C82.9315 128.433 83.2782 128.907 83.7448 129.24C84.2115 129.573 84.8048 129.74 85.5248 129.74C86.2448 129.74 86.8382 129.573 87.3048 129.24C87.7715 128.907 88.1115 128.433 88.3248 127.82C88.5515 127.193 88.6648 126.46 88.6648 125.62C88.6648 124.767 88.5515 124.04 88.3248 123.44C88.0982 122.84 87.7515 122.38 87.2848 122.06C86.8315 121.727 86.2382 121.56 85.5048 121.56C84.4115 121.56 83.6182 121.92 83.1248 122.64C82.6315 123.36 82.3848 124.353 82.3848 125.62ZM101.894 122.98C101.894 123.647 101.694 124.167 101.294 124.54C100.894 124.913 100.381 125.167 99.7542 125.3V125.38C100.421 125.473 101.001 125.713 101.494 126.1C101.988 126.473 102.234 127.06 102.234 127.86C102.234 128.313 102.148 128.733 101.974 129.12C101.814 129.507 101.561 129.84 101.214 130.12C100.868 130.4 100.421 130.62 99.8742 130.78C99.3276 130.927 98.6676 131 97.8942 131H93.2742V120.28H97.8742C98.6342 120.28 99.3142 120.367 99.9142 120.54C100.528 120.7 101.008 120.98 101.354 121.38C101.714 121.767 101.894 122.3 101.894 122.98ZM100.414 127.86C100.414 127.247 100.181 126.807 99.7142 126.54C99.2476 126.273 98.5609 126.14 97.6542 126.14H95.0342V129.58H97.6942C98.5742 129.58 99.2476 129.453 99.7142 129.2C100.181 128.933 100.414 128.487 100.414 127.86ZM100.114 123.2C100.114 122.693 99.9276 122.327 99.5542 122.1C99.1942 121.86 98.6009 121.74 97.7742 121.74H95.0342V124.68H97.4542C98.3209 124.68 98.9809 124.56 99.4342 124.32C99.8876 124.08 100.114 123.707 100.114 123.2Z" fill="#939597"/>
<path d="M6.44 34V28.84H16.08V58H10.32V34H6.44ZM21.6122 43.04C21.6122 38.4267 22.4389 34.8133 24.0922 32.2C25.7722 29.5867 28.5455 28.28 32.4122 28.28C36.2789 28.28 39.0389 29.5867 40.6922 32.2C42.3722 34.8133 43.2122 38.4267 43.2122 43.04C43.2122 47.68 42.3722 51.32 40.6922 53.96C39.0389 56.6 36.2789 57.92 32.4122 57.92C28.5455 57.92 25.7722 56.6 24.0922 53.96C22.4389 51.32 21.6122 47.68 21.6122 43.04ZM37.6922 43.04C37.6922 41.0667 37.5589 39.4133 37.2922 38.08C37.0522 36.72 36.5455 35.6133 35.7722 34.76C35.0255 33.9067 33.9055 33.48 32.4122 33.48C30.9189 33.48 29.7855 33.9067 29.0122 34.76C28.2655 35.6133 27.7589 36.72 27.4922 38.08C27.2522 39.4133 27.1322 41.0667 27.1322 43.04C27.1322 45.0667 27.2522 46.7733 27.4922 48.16C27.7322 49.52 28.2389 50.6267 29.0122 51.48C29.7855 52.3067 30.9189 52.72 32.4122 52.72C33.9055 52.72 35.0389 52.3067 35.8122 51.48C36.5855 50.6267 37.0922 49.52 37.3322 48.16C37.5722 46.7733 37.6922 45.0667 37.6922 43.04ZM66.5516 40.64H59.3916V58H53.4316V40.64H46.2716V36.16H66.5516V40.64ZM70.5809 58V36.16H76.5409V44.6H79.4209C81.6609 44.6 83.5009 44.84 84.9409 45.32C86.3809 45.7733 87.4476 46.48 88.1409 47.44C88.8609 48.4 89.2209 49.6 89.2209 51.04C89.2209 52.4533 88.8876 53.68 88.2209 54.72C87.5809 55.76 86.5543 56.5733 85.1409 57.16C83.7543 57.72 81.9143 58 79.6209 58H70.5809ZM79.3009 53.88C80.4743 53.88 81.4209 53.6667 82.1409 53.24C82.8876 52.8133 83.2609 52.1067 83.2609 51.12C83.2609 50.2667 82.9143 49.6533 82.2209 49.28C81.5543 48.9067 80.5543 48.72 79.2209 48.72H76.5409V53.88H79.3009ZM92.3809 58V36.16H98.3409V58H92.3809ZM113.445 58.4C111.285 58.4 109.445 58.0133 107.925 57.24C106.405 56.44 105.245 55.2133 104.445 53.56C103.645 51.9067 103.245 49.7867 103.245 47.2C103.245 44.5333 103.699 42.36 104.605 40.68C105.512 39 106.765 37.76 108.365 36.96C109.992 36.16 111.859 35.76 113.965 35.76C115.459 35.76 116.752 35.9067 117.845 36.2C118.965 36.4933 119.939 36.84 120.765 37.24L119.005 41.84C118.072 41.4667 117.192 41.16 116.365 40.92C115.565 40.68 114.765 40.56 113.965 40.56C112.925 40.56 112.059 40.8133 111.365 41.32C110.672 41.8 110.152 42.5333 109.805 43.52C109.485 44.48 109.325 45.6933 109.325 47.16C109.325 48.6 109.499 49.8 109.845 50.76C110.219 51.6933 110.752 52.4 111.445 52.88C112.139 53.3333 112.979 53.56 113.965 53.56C115.219 53.56 116.325 53.4 117.285 53.08C118.245 52.7333 119.179 52.2667 120.085 51.68V56.76C119.179 57.3467 118.219 57.76 117.205 58C116.219 58.2667 114.965 58.4 113.445 58.4ZM145.672 46.2H138.112V53.96H132.832V46.2H125.272V41.32H132.832V33.56H138.112V41.32H145.672V46.2Z" fill="#506A7B" fill-opacity="0.8"/>
</g>
<defs>
<clipPath id="clip0_228_113">
<rect width="153" height="160" rx="14" fill="white"/>
</clipPath>
</defs>
</svg>
